<?xml version="1.0" encoding="UTF-8"?>
<svg id="Layer_2" data-name="Layer 2" xmlns="http://www.w3.org/2000/svg" viewBox="0 0 680.99 303.38">
  <defs>
    <style>
      .cls-1 {
        stroke-dasharray: 0 0 12.16 12.16;
      }

      .cls-1, .cls-2 {
        fill: none;
        stroke: #fff;
        stroke-miterlimit: 10;
        stroke-width: 4px;
      }

      .cls-3 {
        opacity: .22;
      }

      .cls-4, .cls-5 {
        opacity: .6;
      }

      .cls-6, .cls-5, .cls-7, .cls-8, .cls-9 {
        stroke-width: 0px;
      }

      .cls-5, .cls-8 {
        fill: #fff;
      }

      .cls-7 {
        fill: #e1e1e1;
      }

      .cls-9 {
        fill: #fff687;
      }
    </style>
  </defs>
  <g id="Layer_2-2" data-name="Layer 2">
    <g>
      <g>
        <path class="cls-9" d="M51.22,159.07c-1.15,1.88-.77,1.33,1.16-1.65-.44.62-.9,1.23-1.38,1.82-.71.89-1.46,1.76-2.23,2.6-1.04,1.13-2.15,2.18-3.24,3.26-2.92,2.91,3.58-3.02.63-.54-5.37,4.51-10.8,8.94-15.94,13.71s-8.94,9.89-12.42,15.72c-4.45,7.44-5.75,15.37-6.2,23.85l41.39-8.6c-.21-.7-.38-1.41-.52-2.13l1.16,5.6c-.37-2.16-.49-4.27-.38-6.47-.12,1.9-.24,3.81-.36,5.71.23-2.58.76-5.01,1.55-7.47l-1.79,5.23c.63-1.74,1.34-3.44,2.21-5.08.4-.76,2.27-3.66.2-.61s.04.02.42-.46c1.04-1.34,2.18-2.6,3.38-3.81,2.41-2.42-.1-.28-1.05.83.61-.72,1.54-1.28,2.28-1.86,6.1-4.73,12.97-8.32,19.8-11.87-8.02-11.74-16.04-23.48-24.06-35.22-18.27,12.77-26.87,32.75-33.56,53.19-3.37,10.27-6.04,21.73-4.21,32.56,1.25,7.37,3.19,13.57,6.99,20.02s9.19,10.61,15.3,14.6c2.79,1.82,7.7,2.38,10.94,2.15,4.74-.33,9.07-2.36,12.57-5.48,2.84-2.53,4.72-5.37,5.95-8.97,1.4-4.09,2.1-9.88.1-13.93-2.02-4.08-3.82-7.76-6.72-11.21-2.59-3.08-5.33-6-8.29-8.72-1.9-1.74-3.86-3.42-5.71-5.22-.56-.54-1.1-1.1-1.63-1.67,2.29,2.63,2.73,3.08,1.34,1.36-.87-1.32-1.77-2.56-2.55-3.95l2.5,4.93c-.86-1.73-1.5-3.44-1.92-5.32l1.16,5.6c-.17-1.14-.25-2.18-.24-3.33l-.36,5.71c.04-.76.14-1.51.3-2.25-13.94-2.81-27.88-5.61-41.82-8.42-1.66,10.36-2.54,21.21.95,31.32,4.28,12.37,14.11,19.4,25.39,24.85,17.42,8.41,35.08,16.34,52.67,24.4,4.55-13.35,9.1-26.69,13.65-40.04-9.19-1.68-18.22-4-27.07-6.96,1.74.6,3.49,1.19,5.23,1.79-4.52-1.54-8.88-3.25-13.1-5.49-3.32-1.76,3.72,3.17.74.51-.69-.62-2.25-1.39-2.56-2.24.42,1.15,3.13,3.97.99.91-.82-1.17-1.51-2.41-2.17-3.68.83,1.64,1.67,3.29,2.5,4.93-2.59-5.46-4.11-11.36-5.34-17.25.39,1.87.77,3.73,1.16,5.6-1.73-8.91-2.35-17.9-1.85-26.96l-.36,5.71c.23-3.41.45-6.85,1.47-10.13-.6,1.74-1.19,3.49-1.79,5.23.36-.94,1.85-3.4-.24-.21-.55,1.12-1.33,2.04-2.35,2.75-1.67,1.31-1.85,1.58-.54.8-1.64.83-3.29,1.67-4.93,2.5l1.02-.34c-1.87.39-3.73.77-5.6,1.16.69-.16,1.39-.2,2.1-.14l-5.71-.36c.72.07,1.43.21,2.12.44-1.74-.6-3.49-1.19-5.23-1.79.7.26,1.39.52,2.07.85.58.29,3.78,2.32.57.21-2.93-1.93-.67-.39-.05.09.72.55,1.42,1.13,2.1,1.73,1.23,1.08,2.34,2.25,3.5,3.39,1.8,1.77-3-3.64-1.47-1.63.55.72,1.16,1.41,1.71,2.13,4.06,5.28,7.31,11.13,10.33,17.05l-2.5-4.93c1.17,2.31,2.3,4.64,3.43,6.97,2.4,4.95,5.36,9.68,10.67,12.02,4.46,1.97,8.95,2.56,13.74,1.57,10-2.07,18.07-11.58,16.97-22.19-2.53-24.52-5.79-48.96-9.79-73.29-11.75,5.87-23.5,11.73-35.25,17.6,1.5,1.2,3.01,2.39,4.51,3.59,4.2,3.34,9.97,5.81,15.48,5.17,5.23-.6,11.5-2.73,14.6-7.29,2.6-3.83,4.89-7,5.63-11.76.66-4.31.56-9.37-1.25-13.41-2.31-5.16-5.47-9.45-10.67-12.02-4.75-2.35-11.91,3.17-16.91,5.18-11.13,4.49-16.09,9.59-12.65,21.04,3.44,11.41,8.65,22.12,13.44,32.99,4.87,11.04,8.79,22.32,11.26,34.15-.39-1.87-.77-3.73-1.16-5.6,2.68,13.39,3.6,26.99,2.76,40.62l.36-5.71c-.43,6.14-1.21,12.23-2.34,18.28-2.05,10.95,4.84,12.45,16.33,14.23,11.3,1.75,23.3,5.92,25.5-5.81,4.71-25.16,3.63-50.54-2.36-75.35-5.24-21.71-17.15-40.73-23.56-62-13.41,4.73-26.82,9.47-40.23,14.2l.36.8-1.16-5.6.14.87.36-5.71-.08.88c.6-1.74,1.19-3.49,1.79-5.23l2.24-2.99c10.03-.71,20.06-1.41,30.08-2.12-1.5-1.2-3.01-2.39-4.51-3.59-6.8-5.42-12.71,5.66-20.58,9.66-6.97,3.54-16.03-.32-14.67,7.94,4,24.33,7.26,48.77,9.79,73.29,13.8-2.87,27.59-5.73,41.39-8.6-6.53-13.51-13.09-26.16-23.39-37.19-4.82-5.16-11.02-10.21-17.64-12.71-6.81-2.58-13.68-3.47-20.77-1.28s-12.67,7.39-16,13.72c-4.29,8.13-4.5,17.6-4.76,26.57-.2,7,.3,14.02,1.5,20.91,1.42,8.16,3.06,16.79,6.47,24.41,4.56,10.19,11.04,17.55,20.42,23.53,7.27,4.63,15.94,7.15,24.08,9.71,7.63,2.4,15.41,4.28,23.27,5.72,10.51,1.92,20.79-4.02,24.23-14.09,3.32-9.72-.87-21.5-10.58-25.95-11.81-5.41-23.63-10.79-35.41-16.26-5.77-2.68-11.53-5.38-17.25-8.15-1.16-.56-2.33-1.12-3.49-1.69-.69-.34-1.37-.69-2.05-1.05-1.91-1.11-1.37-.7,1.6,1.23-.5-.65-1.95-1.85-2.61-2.22,2.4,2.84,2.98,3.38,1.73,1.64-.36-.57-.68-1.16-.97-1.77.83,1.64,1.67,3.29,2.5,4.93-.69-1.58-1.18-3.15-1.54-4.83.39,1.87.77,3.73,1.16,5.6-.48-2.82-.55-5.62-.42-8.47-.12,1.9-.24,3.81-.36,5.71.2-2.88.58-5.73,1.04-8.57,1.76-10.99-5.01-23.31-16.7-25.12-11.22-1.74-23.01,4.96-25.12,16.7-2.62,14.62,3.56,26.98,13.23,37.43,2.54,2.75,5.4,5.16,8.14,7.7.67.62,1.35,1.25,2,1.9.61.61,2.93,3.13.43.35s-.28-.22.22.5c.63.89,1.18,1.81,1.71,2.76-.83-1.64-1.67-3.29-2.5-4.93l.48.98c9.85-8.74,19.7-17.48,29.55-26.23.54.35,3.79,3.14,2.01,1.16-.58-.64-2.92-3-.36-.2,2.37,2.58.7.67.23-.04s-.92-1.49-1.34-2.26c.83,1.64,1.67,3.29,2.5,4.93-1.12-2.26-1.93-4.54-2.52-6.99l1.16,5.6c-.62-3.03-.81-6.01-.71-9.1-.12,1.9-.24,3.81-.36,5.71.49-7.6,2.72-14.84,5.15-22.02l-1.79,5.23c2.34-6.8,4.96-13.53,8.52-19.79.45-.79.93-1.57,1.39-2.35,1.6-2.69-1.09,1.87-1.23,1.81.05.02,3.09-4.04,3.29-4.28.25-.29,3.78-3.71,3.71-3.89.09.25-4.09,3.36-1.62,1.51.87-.66,1.73-1.31,2.63-1.94,9.14-6.39,12.54-20.36,5.58-29.64-3.25-4.34-7.89-8.03-13.4-8.88-6.04-.93-10.87.5-16.24,3.3-11.81,6.15-23.73,12.96-32.2,23.53-11.18,13.95-15.57,30.88-10.86,48.27,1.28,4.73,6.24,10.07,10.67,12.02s8.95,2.56,13.74,1.57c4.42-.91,8.91-3.07,11.8-6.71,3.76-4.72,4.86-9.5,5.17-15.48l.06-1.11c-.12,1.9-.24,3.81-.36,5.71.22-2.2.68-4.28,1.39-6.37l-1.79,5.23c.77-2.02,2.21-3.91,2.89-5.9-1.93,2.81-2.42,3.56-1.47,2.22.32-.46.66-.91,1.01-1.35.69-.89,1.42-1.76,2.18-2.6,1.51-1.7,3.19-3.21,4.79-4.82-4.56,4.57-1.81,1.62-.64.64.89-.75,1.78-1.49,2.68-2.23,9.59-7.94,18.14-15.57,24.6-26.32,2.71-4.51,2.68-11.75.99-16.54-1.71-4.84-5.9-9.92-10.67-12.02-11.31-4.99-22.41-.55-28.57,9.68h0Z"/>
        <g class="cls-4">
          <path class="cls-8" d="M146.51,123.98c-16.01-3.33-28.75-15.15-40.01-27.02-10.86-11.44-21.94-26.41-17.53-41.55,3.12-10.71,13.68-18.04,24.66-20.01,20.18-3.63,41.24,9.21,50.11,27.7,8.87,18.49,6.62,41.07-2.83,59.26-13.92-19.5-22.68-42.64-25.14-66.47-1.26-12.21-.66-25.36,6.25-35.51,5.72-8.4,14.86-16.43,25.01-16.24,3.99.08,14.88,2.87,18.49,4.78,18.81,9.96,17.76,39.15,12.23,59.7-5.52,20.55-17.97,38.44-30.2,55.86"/>
          <path class="cls-7" d="M147.35,119.79c-15.52-3.43-27.47-14.86-38.05-26.05-9.85-10.42-23.15-27.13-14.1-41.93,7.32-11.97,23.31-14.76,35.94-11.26,13.83,3.83,25.37,14.89,30.4,28.22,6.38,16.91,3.61,35.88-4.45,51.7l7.35-.52c-11.73-16.59-19.87-35.71-23.24-55.77-3.14-18.68-2.98-39.53,14.08-51.62,7.02-4.98,13.35-4.41,21.22-2.29,6.36,1.71,11.54,4.39,15.17,10.09,7.81,12.27,5.99,29.62,2.97,43.09-4.87,21.74-17.71,40.29-30.3,58.24-3.13,4.46,3.29,10.09,6.44,5.59,12.85-18.32,25.88-37.11,31.49-59.09,4.09-16.03,5.78-35.38-2.31-50.48-3.68-6.86-9.58-11.85-16.93-14.33-7.98-2.69-16.59-4.92-24.81-1.98-9.59,3.43-17.84,12.04-22.33,21.03-4.73,9.47-5.42,20.49-4.63,30.88,1.95,25.59,11.34,50.55,26.13,71.46,1.86,2.63,5.88,2.36,7.35-.52,8.49-16.66,11.53-36.38,6.13-54.5-4.93-16.54-17.73-30.47-34.05-36.28-15.56-5.54-34.33-3.22-45.72,9.64-13.5,15.25-5.79,35.11,5.47,49,12.59,15.53,28.97,31.6,49.11,36.05,5.37,1.19,7.04-7.18,1.68-8.36h0Z"/>
        </g>
        <path class="cls-9" d="M123.5,124.58c-14.62,3.3-29.55,5.06-44.13,8.57-13.57,3.26-26.6,8.39-38.26,16.13C20.26,163.1,3.86,184.8.64,210.06c-1.6,12.57-.25,25.68,4.64,37.42s13.68,22.04,24.44,29.49c22.43,15.51,50.24,22.85,77.11,25.33,27.7,2.55,55.56.32,83.01-3.73,29.19-4.31,58.55-10.47,85.02-23.99,23.58-12.04,45.15-30.53,53.19-56.56,3.99-12.91,4.14-27.26-.74-39.96-4.07-10.59-11.35-19.68-20.15-26.75-19.85-15.92-45.68-22.93-70.26-27.47-29.73-5.49-60.35-6.52-90.37-2.96-7.42.88-14.79,2.06-22.12,3.48-5.32,1.03-4.78,9.56.6,8.51,27.87-5.42,56.5-6.97,84.77-4.23,25.19,2.43,51.58,7.22,74.5,18.39,19.93,9.72,37.25,26.12,38.18,49.57,1.04,26.3-16.58,48.27-37.39,62.2-22.66,15.17-49.53,23.02-76.09,27.99-26.05,4.88-52.69,8.19-79.22,8.1-25.82-.09-52.01-3.86-75.79-14.3-11.33-4.97-22.52-11.3-30.91-20.58-7.92-8.75-12.64-20.07-14.04-31.73-2.91-24.08,7.66-46.87,25.27-62.95,8.99-8.21,19.7-14.65,31.05-19,13.09-5.02,26.95-7.34,40.7-9.74,6.8-1.19,13.58-2.43,20.31-3.96,5.34-1.21,2.47-9.24-2.84-8.05h0Z"/>
        <path class="cls-6" d="M32.68,205.85c7.72,0,7.73-12,0-12s-7.73,12,0,12h0Z"/>
        <path class="cls-6" d="M51.43,204.09c7.72,0,7.73-12,0-12s-7.73,12,0,12h0Z"/>
        <path class="cls-9" d="M86.54,145.79c13.17,42.74,39.77,89.25,24.1,135-.75,2.19-.3,4.58,1.94,5.71,1.85.94,4.97.24,5.71-1.94,16.69-48.72-9.63-95.95-23.7-141.62-1.62-5.24-9.66-2.41-8.05,2.84h0Z"/>
        <path class="cls-9" d="M165.31,125.85c21.16,45.47,28.87,96.63,21.69,146.29-.78,5.42,7.58,7.12,8.36,1.68,7.39-51.12-.21-103.97-22.01-150.82-2.29-4.93-10.37-2.15-8.05,2.84h0Z"/>
        <path class="cls-9" d="M234.92,138.2c19.02,38.76,29.62,81.16,30.97,124.31.17,5.49,8.68,4.88,8.51-.6-1.37-43.83-12.11-87.19-31.43-126.55-2.39-4.86-10.47-2.09-8.05,2.84h0Z"/>
        <path class="cls-6" d="M59.52,208.67c-2.73,1.96-5.47,3.9-8.41,5.55-.36.2-.73.4-1.1.6-.34.18-.37.19-.1.05-.19.09-.37.18-.56.27-.75.36-1.51.69-2.29.99s-1.56.57-2.36.8c-.38.11-.77.2-1.15.3-.36.08-.33.08.09-.01-.17.03-.34.06-.5.09-1.35.24-2.73.34-4.1.31-.17,0-.34,0-.51-.02.43.03.46.03.09,0-.34-.04-.68-.07-1.02-.11-.67-.09-1.34-.22-2-.39-.33-.08-.65-.18-.97-.28.79.23-.25-.1-.4-.16-.62-.25-1.22-.54-1.8-.87-.14-.08-1.03-.69-.37-.21-.27-.2-.54-.39-.8-.6s-.51-.43-.75-.66c-.11-.1-.85-.9-.32-.3-1.1-1.25-2.95-1.96-4.45-.84-1.25.94-2.02,3.1-.84,4.45,3.68,4.2,8.69,6.14,14.21,6.36s11.07-1.89,15.9-4.64c2.83-1.61,5.49-3.5,8.13-5.39,1.36-.97,1.89-3.04.84-4.45s-2.99-1.88-4.45-.84h0Z"/>
        <path class="cls-5" d="M33.59,158.47c-7.37-8.58-11.03-19.28-10.47-30.58.17-3.42-5.15-3.01-5.32.38-.6,12.09,3.5,24.03,11.39,33.21,2.21,2.57,6.64-.4,4.4-3.01h0Z"/>
        <path class="cls-5" d="M23.66,126.24c.11-1.84-.42-3.44-1.25-5.06-.76-1.47-3.28-1.52-4.21-.24-2.63,3.58,2.14,8.35,5.43,5.08,1.28-1.28,1.61-3.15.89-4.81-.89-2.07-3.08-2.8-5.16-2.82-1.18,0-2.19,1.05-2.43,2.13-1.24,5.58,6.63,8.51,10.92,6.8,2.78-1.11,3.75-4.47,1.61-6.71s-6.03-2.87-9.01-2.38c-1.42.24-2.58,1.31-2.47,2.85.09,1.33,1.42,2.71,2.85,2.47,1.22-.2,2.43-.25,3.62.15.26.1.52.21.77.34.7.45.93-.11.69-1.69.05.02-.53.15-.62.13-.68-.18-1.37-.12-2.08-.4-.32-.13-.61-.36-.92-.47-.74-.28-.06-.42-.14-.04l-2.43,2.13c.29.09.31.03.07-.19-.6-.68-.14-1.28,1.38-1.81l1.22.6.23,1.17-.6,1.22.19-.26-4.21-.24c.39.76.38,1.59.33,2.42-.08,1.44,1.54,2.56,2.85,2.47,1.59-.11,2.39-1.4,2.47-2.85h0Z"/>
        <path class="cls-5" d="M40.44,156.07c.91-11.76-6.05-30.71,6.17-38.71,2.87-1.88-.13-6.28-3.01-4.4-14.48,9.47-7.32,28.15-8.39,42.06-.26,3.38,4.96,4.47,5.23,1.05h0Z"/>
        <path class="cls-5" d="M48.76,115.51c3.05-3.27,1.92-8.64-1.89-10.74-1.27-.7-2.94-.03-3.57,1.21-2.56,5.01,1.4,10.76,6.74,11.01.96.05,1.76-.73,2.2-1.48,1.86-3.1-.19-6.66-3.31-7.71-1.86-.63-3.86,1.77-3.04,3.5.88,1.87,2.43,3.02,4.57,2.86,3.42-.26,3.05-5.58-.38-5.32l.84.69c-1.01,1.17-2.03,2.33-3.04,3.5-.47-.16-.18-.28-.42.13l2.2-1.48c-1.46-.07-2.12-2.28-1.58-3.33l-3.57,1.21c.91.5.85,1.78.22,2.47-2.34,2.52,1.69,6,4.03,3.5h0Z"/>
        <path class="cls-9" d="M189.82,158.3c5.49,3.6,10.97,7.21,16.46,10.81,4.93,3.24,12.61,1.91,17.18-1.21,5.47-3.74,7-9.05,7.39-15.29.23,1.77-.07,3.43-.9,5.01.82-1.57.52-1.19-.91,1.16,1.21-1.3.83-.99-1.14.94-2.58,1.14-3.03,1.38-1.35.73-7.57-4.96-15.13-9.93-22.7-14.89,2.18,11.13,5.26,21.93,8.35,32.83.73,2.56,1.44,5.13,2.1,7.71.33,1.29.65,2.58.96,3.87.17.73,1.41,5.09.2.7,1.27,4.65,1.65,9.84,1.89,14.64.11,2.18.14,4.36.09,6.54-.03,1.34-.82,4.44.06.18-.23,1.12-.21,2.42-.34,3.55-.52,4.53-1.38,9.02-2.57,13.42-.26.96-.53,1.91-.82,2.86-.23.76-.47,1.51-.72,2.27l.65-1.94c.03,1.85-1.91,4.91-2.68,6.61-1.96,4.34-4.29,8.49-6.89,12.48,10.46.62,20.93,1.25,31.39,1.87-.81-2.22-1.54-4.46-2.17-6.73-.31-1.14-.58-2.28-.87-3.43-.99-4,.64,3.93-.03-.14-.75-4.5-1.37-9-1.75-13.55-.79-9.39-.89-18.83-1.24-28.25-.78-20.74-3.66-41.06-14.27-59.26-4.27-7.33-14.68-9.05-21.74-5.46-7.89,4-10.71,12.45-8.44,20.77,2.56,9.4,7.99,17.9,13.9,25.54,5.66,7.32,11.2,14.37,15.96,22.32,1.09,1.82-1.4-3.06-.06-.14.51,1.11,1.04,2.21,1.53,3.32.98,2.24,1.87,4.51,2.69,6.81,1.58,4.43,2.88,8.97,3.97,13.55.22.95.65,2.03.68,3.01-.15-4.41-.18-.87.05.37.45,2.44.86,4.88,1.22,7.33.73,4.89,1.29,9.8,1.77,14.72.87,8.87,8.88,16.9,18.22,15.82s16.31-8.66,15.82-18.22c-.95-18.39-2.84-36.72-5.66-54.92-11.04,2.29-22.07,4.59-33.11,6.88,4.72,19.88,9.44,39.76,14.16,59.64,3.47-7.26,6.94-14.51,10.41-21.77-10.02,2.45-19.32,6.18-28.47,10.92-.45.23-.89.47-1.33.7-2.41,1.28,1.74-.79,1.94-.98-.82.77-2.5,1.05-3.51,1.47-2.25.93,4.4-.64,2.6-.52,1.27-.08,4.74.6,6.73,1.47,4.33,1.9,7.39,6.61,7.8,11.2-.25-2.79-.59,4.7-.12,1.12-11.25-.72-22.5-1.44-33.75-2.17.18.71.29,1.44.33,2.17.31-2.72.33-3.13.07-1.25-.45,1.79-.31,1.46.41-1-.86,1.61-.63,1.35.68-.8-5.27,7.19-5.92,18,1.7,24.07,6.74,5.37,18.43,5.99,24.07-1.7,5-6.82,8.49-15.26,6.78-23.9-.88-4.44-2.08-8.7-5.83-11.68-2.99-2.38-6.27-3.75-10.1-3.99-7.94-.5-16.69,5.06-17.81,13.51-1.29,9.78.81,19.87,10.31,24.8,5.98,3.1,13.13,2.72,19.23.18,2.56-1.06,4.99-2.42,7.44-3.7.36-.19.73-.38,1.09-.57,1.28-.67.69-.37-1.78.9.09.1,4.25-1.97,4.65-2.14,5.89-2.52,12.01-4.43,18.23-5.95,3.75-.92,8.09-5.08,9.62-8.54,1.96-4.44,1.91-8.53.79-13.23-4.72-19.88-9.44-39.76-14.16-59.64-.89-3.75-5.11-8.1-8.54-9.62-3.57-1.57-7.16-2.05-10.99-1.25-7.69,1.59-14.88,9.35-13.58,17.75,2.83,18.2,4.72,36.52,5.66,54.92,11.35-.8,22.69-1.6,34.04-2.4-1.99-20.33-5.37-41.28-14.58-59.71-4.7-9.41-10.45-17.5-16.96-25.72-2.83-3.57-5.64-7.19-8.07-11.05-.6-.95-1.14-1.94-1.72-2.9-1.61-2.67,1,2.4.23.45-.91-2.29-1.81-4.48-2.47-6.87-10.06,5.1-20.12,10.2-30.18,15.31.57.97,1.07,2.17,1.72,3.08-2.35-3.32-.54-.99,0,.25.84,1.94,1.59,3.92,2.25,5.93s1.24,4.04,1.75,6.09c.18.75.36,1.5.52,2.25l-.46-2.21c.07,1.11.43,2.33.61,3.43,1.45,8.99,1.85,18.11,2.14,27.19.63,19.36,1.09,39.02,7.79,57.46,2.33,6.4,8.27,10.77,15.01,11.19,7.36.47,12.52-3.39,16.38-9.32,11.72-17.97,17.25-39.74,16.74-61.11-.27-11.43-2.87-22.78-5.85-33.77-1.4-5.15-2.93-10.25-4.38-15.38-.73-2.57-1.43-5.14-2.09-7.72-.33-1.29-.65-2.58-.95-3.88-.15-.65-.3-1.3-.44-1.95.46,2.31.5,2.5.12.57-1.08-5.52-2.82-9.68-7.65-12.89-4.44-2.95-9.93-3.88-15.05-2-4.81,1.77-9.4,4.76-12.49,8.91-4.1,5.52-5.46,11-5.88,17.82,8.19-5.5,16.38-11,24.57-16.5-5.49-3.6-10.97-7.21-16.46-10.81-3.44-2.26-9.56-2.09-13.23-.79-3.87,1.37-7.93,4.72-9.62,8.54-1.81,4.1-2.52,8.95-.79,13.23,1.77,4.4,4.61,7.04,8.54,9.62h0Z"/>
        <path class="cls-9" d="M256.23,240.98c-5.49.61-11.05,1.7-16.29,3.45-2,.67-3.92,1.5-5.86,2.31-.22.09-2.72,1.3-2.89,1.1l2.14-.39c2.61.41,2.98.41,1.09,0-8.67-2.13-18.73,4.52-20.1,13.36-1.46,9.46,4.08,17.82,13.36,20.1,7.04,1.73,13.59-.3,20.03-2.95,2.16-.89,4.37-1.65,6.63-2.26l1.23-.32c1.9-.44,1.65-.39-.74.15.74-.55,2.94-.42,3.79-.51,8.86-.98,16.91-8.8,15.82-18.22-1.03-8.89-8.72-16.87-18.22-15.82h0Z"/>
        <path class="cls-9" d="M265.5,235.94c.77-9.6-.35-18.49-3.68-27.58-2.52-6.88-5.92-13.4-8.42-20.28s-4.1-13.66-5.99-20.53c-2.31-8.41-5.33-16.13-9.3-23.89-8.42,7.5-16.85,15-25.27,22.51,1.64,1.34,3.05,3.19,4.74,4.39l-1.48-1.66c.46.54.91,1.1,1.35,1.66.55.7,1.07,1.42,1.58,2.15,1.13,1.62,2.1,3.32,3.12,5.01,1.97,3.26-1.62-3.56-.02-.09.46.99.92,1.98,1.35,2.98,3.36,7.78,5.59,15.99,7.74,24.17,2.27,8.65,13.71,13.66,21.77,10.41,9.15-3.69,12.85-12.5,10.41-21.77-5.14-19.54-11.96-39.78-28.19-53.01-6.63-5.4-16.01-5.48-22.44.25-2.66,2.37-4.91,5.65-5.48,9.27-.75,4.85.43,8.67,2.64,12.99-2.15-4.2.28.88.63,1.73.63,1.54,1.21,3.1,1.76,4.68,1.09,3.16,2.02,6.38,2.91,9.6,1.78,6.47,3.35,13.01,5.56,19.35,2.21,6.33,5.22,12.34,7.72,18.55.62,1.54,1.21,3.09,1.75,4.67.27.8,1.75,3.95,1.4,4.71-.47-2.5-.54-2.81-.2-.91.13.8.23,1.6.3,2.4.1,1.1-.12,6.49.28,1.53-.38,4.75-.16,8.9,2.64,12.99,2.31,3.38,6.6,6.47,10.72,7.1,8.23,1.27,19.34-3.85,20.1-13.36h0Z"/>
        <path class="cls-9" d="M182.42,162.68c2.91,19.14,5.8,38.31,7.36,57.61.76,9.5,1.2,19.02,1.14,28.55-.02,2.49-.06,4.98-.15,7.47-.03.9-.07,1.81-.11,2.71-.03.68-.12,5.34-.02.86-.11,4.95-.87,9.98-1.53,14.88-1.19,8.82,3.86,18.62,13.36,20.1,8.65,1.34,18.82-3.9,20.1-13.36,5.48-40.62,0-81.02-6.11-121.21-1.34-8.8-8.55-16.94-18.22-15.82-8.58.99-17.25,8.77-15.82,18.22h0Z"/>
        <path class="cls-9" d="M175.77,133.64c1.63,1.74,2.74,3.54,3.75,5.69l8.21-8.21c-1.18-.55-2.36-1.1-3.53-1.64l2.97,5.18c-.11,2.08,3.76,1.2,5.55,1.32,1.92.12,3.83.29,5.74.51,4.24.48,8.46,1.21,12.66,1.97,8.2,1.5,16.38,3.11,24.57,4.68,7.55,1.44,10.78-10.12,3.19-11.57-12.17-2.33-24.32-4.97-36.6-6.6-9.44-1.26-26.36-4.18-27.1,9.7-.1,1.93,1.18,4.35,2.97,5.18,1.18.55,2.36,1.1,3.53,1.64,5.56,2.58,10.83-2.63,8.21-8.21-1.43-3.05-3.32-5.66-5.63-8.12-5.3-5.64-13.77,2.86-8.49,8.49h0Z"/>
        <path class="cls-9" d="M5.59,200.24c.18,2.31.53,4.6,1.28,6.8,1.01,2.96,4.17,5.23,7.38,4.19,2.94-.95,5.27-4.2,4.19-7.38-.45-1.33-.77-2.68-.96-4.07l.21,1.6c-.04-.38-.08-.76-.11-1.14-.24-3.12-2.59-6.15-6-6-3.04.14-6.26,2.65-6,6h0Z"/>
        <path class="cls-9" d="M69.58,142.25c-3.44-.32-6.94-.22-10.06,1.43s-5.56,4.49-8.05,6.83c-5.66,5.28,2.84,13.75,8.49,8.49,1.51-1.41,3.06-3.38,4.82-4.48,1.35-.85,3.28-.41,4.82-.26,3.23.31,6-2.98,6-6,0-3.5-2.76-5.69-6-6h0Z"/>
        <path class="cls-9" d="M63.39,148.41c-5.59-.99-10.42.44-14.91,3.88-3.99,3.05-6.87,7.4-11.52,9.51-7.02,3.19-.93,13.53,6.06,10.36,3.49-1.58,6.29-4.16,8.97-6.85,1.91-1.92,5.08-5.89,8.21-5.34,7.55,1.33,10.79-10.23,3.19-11.57h0Z"/>
        <path class="cls-9" d="M87.5,148.57c7.72,0,7.73-12,0-12s-7.73,12,0,12h0Z"/>
      </g>
      <g class="cls-3">
        <g>
          <path class="cls-2" d="M351.59,181.58s2.11-.07,5.96-.61"/>
          <path class="cls-1" d="M369.48,178.63c16.13-3.93,41.74-13.09,70.79-34.35,49.31-36.09,22.54-104.03-6.69-111.09-29-7-49.02,17.29-56.5,30.25-8.5,14.75-39.43,136.01,104.2,160.57,111.52,19.07,167.85-5.54,188.63-18.61"/>
          <path class="cls-2" d="M674.94,201.98c3.17-2.32,4.64-3.79,4.64-3.79"/>
        </g>
      </g>
    </g>
  </g>
</svg>