<?xml version="1.0" encoding="UTF-8"?>
<svg xmlns="http://www.w3.org/2000/svg" viewBox="0 0 1125 2436">
  <defs>
    <style>
      .cls-1 {
        stroke-dasharray: 0 0 12.16 12.16;
      }

      .cls-1, .cls-2 {
        fill: none;
        stroke: #fff;
        stroke-miterlimit: 10;
        stroke-width: 4px;
      }

      .cls-3 {
        opacity: .22;
      }

      .cls-4, .cls-5 {
        opacity: .6;
      }

      .cls-6, .cls-5, .cls-7, .cls-8, .cls-9, .cls-10, .cls-11, .cls-12, .cls-13 {
        stroke-width: 0px;
      }

      .cls-5, .cls-14, .cls-10 {
        fill: #fff;
      }

      .cls-14 {
        font-family: Inter-Regular, Inter;
        font-size: 36px;
        font-variation-settings: 'wght' 400, 'slnt' 0;
      }

      .cls-7 {
        fill: #2f9700;
      }

      .cls-8 {
        fill: #e1e1e1;
      }

      .cls-9 {
        fill: #9dc700;
      }

      .cls-11 {
        fill: #fff687;
      }

      .cls-12 {
        fill: #f2ffa2;
      }

      .cls-13 {
        fill: #68ca00;
      }
    </style>
  </defs>
  <g id="Layer_1" data-name="Layer 1">
    <rect class="cls-6" x=".5" y=".5" width="1125" height="2436"/>
  </g>
  <g id="Layer_2" data-name="Layer 2">
    <path class="cls-9" d="M348.6,1997.86c38.03,78.13,54.14,166.26,47.61,252.83-1.81,24.03-5.52,47.81-10.93,71.29-1.46,6.31,1.95,12.99,8.38,14.76,6.06,1.66,13.3-2.04,14.76-8.38,20.46-88.74,16.96-182.73-10.1-269.71-7.77-24.99-17.54-49.37-29-72.9-2.84-5.83-11.13-7.4-16.42-4.31-5.95,3.48-7.15,10.57-4.31,16.42h0Z"/>
    <path class="cls-9" d="M707.7,1924.76c38.68,97.51,58.79,201.92,58.78,306.83,0,29.76-1.63,59.51-4.79,89.1-.69,6.45,6.01,12,12,12,7.06,0,11.31-5.53,12-12,11.35-105.97,2.3-214.15-26.13-316.86-8.02-28.98-17.63-57.5-28.72-85.45-2.39-6.02-8.03-10.23-14.76-8.38-5.73,1.57-10.78,8.7-8.38,14.76h0Z"/>
    <path class="cls-9" d="M545.25,2014.35c4.97,20.71,12.8,40.5,19.95,60.51,7.01,19.59,13,39.52,17.85,59.75,9.42,39.34,14.48,79.59,15.14,120.04.39,23.53-.72,47.06-3.23,70.46-.69,6.45,6.01,12,12,12,7.06,0,11.3-5.53,12-12,8.97-83.49-.53-169.15-27.79-248.59-7.82-22.79-17.14-45.07-22.78-68.55-3.6-15.01-26.75-8.66-23.14,6.38h0Z"/>
    <path class="cls-9" d="M872.98,2001.24c23.14,83.07,36.42,168.65,39.28,254.84.82,24.59.78,49.2-.05,73.8-.52,15.45,23.48,15.43,24,0,2.97-87.93-4.63-176.21-22.45-262.37-5.05-24.41-10.95-48.63-17.63-72.64-4.14-14.86-27.3-8.55-23.14,6.38h0Z"/>
    <path class="cls-7" d="M130.71,2393.07c-8.27-58.97-20.76-117.28-37.35-174.47-17.63,13.55-35.26,27.1-52.88,40.66,39.97,20.68,77.99,44.93,113.63,72.39l-7.29-5.63c29.06,22.51,56.43,47.09,81.91,73.59,8.85,9.2,22.83,12.62,35.03,9.26,6.1-1.71,11.39-4.8,15.89-9.26,4.46-4.49,7.55-9.79,9.26-15.89l.66-1.57-3.63,8.6c7.6-17.76,17.38-34.41,29.1-49.76l-5.63,7.29c12.18-15.72,26.22-29.8,41.92-42.01l-7.29,5.63c9.46-7.25,19.42-13.75,29.87-19.48-18.06-10.36-36.11-20.72-54.17-31.08,1,21.78,1.99,43.56,2.99,65.35.52,11.28.84,22.84,3.55,33.85,3.36,13.63,11,25.23,22.02,33.74,24.24,18.73,56.41,11.61,79.63-5,17-12.16,33.24-25.53,49.79-38.29,19.43-14.98,38.87-29.97,58.3-44.95-18.06-10.36-36.11-20.72-54.17-31.08.02,23.95,3.82,48.53,11.8,71.14,9.03,25.59,21.84,47.75,38.57,68.98,6.85,8.7,20.02,11.28,30.24,9.9,10.93-1.47,20.75-7.36,26.3-17.19,25.04-44.31,53.19-86.8,84.24-127.13-1.88,2.43-3.75,4.86-5.63,7.29,7.78-10.07,15.72-20,23.84-29.79-20.06-5.3-40.11-10.59-60.17-15.89,19.91,49.79,39.83,99.59,59.74,149.38,4.82,12.04,11.99,21.52,25.14,25.14,11.97,3.3,26.46.09,35.03-9.26,31.63-34.49,63.25-68.98,94.88-103.47-20.06-5.3-40.11-10.59-60.17-15.89,18.77,46.7,37.54,93.4,56.32,140.11,2.33,5.8,4.75,11.37,9.26,15.89,5.63,5.63,12.87,8.85,20.67,9.9,6.59.88,12.53.13,18.66-2.46,6.47-2.73,14.34-7.99,17.21-14.73,21.4-50.23,49.08-97.59,82.34-140.9l-5.63,7.29c1.59-2.06,3.19-4.1,4.79-6.14l-56.54-7.29c21.37,38.22,42.74,76.44,64.11,114.65,11.45,20.48,40.25,23.21,56.54,7.29,40.4-39.49,80.81-78.98,121.21-118.46-20.49-8.49-40.97-16.97-61.46-25.46-.41,5.11-.95,10.2-1.61,15.28l1.29-9.57c-3.4,24.8-10.03,48.96-19.74,72.03l3.63-8.6c-4.8,11.19-10.28,22.05-16.44,32.55-9.53,16.25-4.25,40.18,12.92,49.25,17.28,9.13,39.08,4.44,49.25-12.92,24.8-42.27,38.78-89.3,42.7-138.03.46-5.75-2.04-13.26-4.92-18.17-3.96-6.77-10.07-11.72-17.21-14.73-13.31-5.62-28.88-2.76-39.33,7.44-40.4,39.49-80.81,78.98-121.21,118.46l56.54,7.29c-21.37-38.22-42.74-76.44-64.11-114.65-5.5-9.84-15.41-15.72-26.3-17.19-10.22-1.37-23.39,1.2-30.24,9.9-37.41,47.5-69.03,98.63-92.76,154.33,21.93,2.87,43.87,5.73,65.8,8.6-18.77-46.7-37.54-93.4-56.32-140.11-4.84-12.04-11.98-21.52-25.14-25.14-11.97-3.3-26.46-.09-35.03,9.26-31.63,34.49-63.25,68.98-94.88,103.47,20.06,5.3,40.11,10.59,60.17,15.89-19.91-49.79-39.83-99.59-59.74-149.38-4.82-12.04-11.99-21.52-25.14-25.14-11.48-3.16-27.05-.37-35.03,9.26-42.56,51.37-80.88,106.12-113.71,164.21l56.54-7.29-1.14-1.45c1.88,2.43,3.75,4.86,5.63,7.29-9.81-12.71-17.87-26.55-24.17-41.31,1.21,2.87,2.42,5.73,3.63,8.6-6.4-15.4-10.76-31.45-13-47.97l1.29,9.57c-1-7.95-1.5-15.92-1.51-23.93-.01-12.69-6.87-24.67-17.83-31.08-10.03-5.87-26.51-7.58-36.34,0-20.86,16.09-41.73,32.17-62.59,48.26-10.29,7.93-20.58,15.87-30.87,23.8-9.36,7.21-18.44,14.9-29.35,19.69l8.6-3.63c-3.18,1.27-6.35,2.23-9.74,2.77l9.57-1.29c-2.15.22-4.19.25-6.34.04l9.57,1.29c-1.6-.28-3.02-.64-4.56-1.16l8.6,3.63c-1.56-.68-2.89-1.41-4.31-2.34l7.29,5.63c-1.61-1.25-2.96-2.57-4.25-4.15l5.63,7.29c-1.16-1.63-2.11-3.29-2.96-5.11l3.63,8.6c-1.57-3.87-2.45-7.84-3.03-11.97l1.29,9.57c-1.56-13.18-1.53-26.63-2.14-39.88-.66-14.52-1.33-29.04-1.99-43.56-1.26-27.46-29.56-44.58-54.17-31.08-25.38,13.92-48.92,32.45-68.22,54.03-21.54,24.09-37.44,50.62-49.87,80.3,20.06-5.3,40.11-10.59,60.17-15.89-45.95-47.79-98.35-89.85-154.84-124.55-15.66-9.61-31.67-18.62-47.99-27.07-13.08-6.77-28.11-6.36-39.98,2.81-11.2,8.65-16.95,23.89-12.9,37.84,16.59,57.19,29.08,115.5,37.35,174.47,1.16,8.27,9.71,17.51,16.54,21.51,7.72,4.52,19.09,6.43,27.74,3.63,8.71-2.82,17.12-8.22,21.51-16.54l3.63-8.6c1.71-6.38,1.71-12.76,0-19.14h0Z"/>
    <path class="cls-9" d="M146.73,2041.99c-1.09,20.45,4.38,40.39,10.71,59.64,6.33,19.23,12.38,38.31,16.07,58.25,7.25,39.19,7.26,79.46,5.15,119.14-1.22,22.91-3.22,45.77-5.26,68.63-.58,6.46,5.93,12,12,12,6.97,0,11.42-5.52,12-12,3.63-40.64,7.18-81.42,6.3-122.26s-6.74-80.84-19.6-119.56c-6.89-20.74-14.56-41.64-13.38-63.83.34-6.48-5.76-12-12-12-6.78,0-11.65,5.5-12,12h0Z"/>
    <g>
      <g>
        <path class="cls-11" d="M273.93,1205.48c-1.15,1.88-.77,1.33,1.16-1.65-.44.62-.9,1.23-1.38,1.82-.71.89-1.46,1.76-2.23,2.6-1.04,1.13-2.15,2.18-3.24,3.26-2.92,2.91,3.58-3.02.63-.54-5.37,4.51-10.8,8.94-15.94,13.71s-8.94,9.89-12.42,15.72c-4.45,7.44-5.75,15.37-6.2,23.85l41.39-8.6c-.21-.7-.38-1.41-.52-2.13l1.16,5.6c-.37-2.16-.49-4.27-.38-6.47-.12,1.9-.24,3.81-.36,5.71.23-2.58.76-5.01,1.55-7.47l-1.79,5.23c.63-1.74,1.34-3.44,2.21-5.08.4-.76,2.27-3.66.2-.61s.04.02.42-.46c1.04-1.34,2.18-2.6,3.38-3.81,2.41-2.42-.1-.28-1.05.83.61-.72,1.54-1.28,2.28-1.86,6.1-4.73,12.97-8.32,19.8-11.87-8.02-11.74-16.04-23.48-24.06-35.22-18.27,12.77-26.87,32.75-33.56,53.19-3.37,10.27-6.04,21.73-4.21,32.56,1.25,7.37,3.19,13.57,6.99,20.02s9.19,10.61,15.3,14.6c2.79,1.82,7.7,2.38,10.94,2.15,4.74-.33,9.07-2.36,12.57-5.48,2.84-2.53,4.72-5.37,5.95-8.97,1.4-4.09,2.1-9.88.1-13.93-2.02-4.08-3.82-7.76-6.72-11.21-2.59-3.08-5.33-6-8.29-8.72-1.9-1.74-3.86-3.42-5.71-5.22-.56-.54-1.1-1.1-1.63-1.67,2.29,2.63,2.73,3.08,1.34,1.36-.87-1.32-1.77-2.56-2.55-3.95l2.5,4.93c-.86-1.73-1.5-3.44-1.92-5.32l1.16,5.6c-.17-1.14-.25-2.18-.24-3.33l-.36,5.71c.04-.76.14-1.51.3-2.25-13.94-2.81-27.88-5.61-41.82-8.42-1.66,10.36-2.54,21.21.95,31.32,4.28,12.37,14.11,19.4,25.39,24.85,17.42,8.41,35.08,16.34,52.67,24.4,4.55-13.35,9.1-26.69,13.65-40.04-9.19-1.68-18.22-4-27.07-6.96,1.74.6,3.49,1.19,5.23,1.79-4.52-1.54-8.88-3.25-13.1-5.49-3.32-1.76,3.72,3.17.74.51-.69-.62-2.25-1.39-2.56-2.24.42,1.15,3.13,3.97.99.91-.82-1.17-1.51-2.41-2.17-3.68.83,1.64,1.67,3.29,2.5,4.93-2.59-5.46-4.11-11.36-5.34-17.25.39,1.87.77,3.73,1.16,5.6-1.73-8.91-2.35-17.9-1.85-26.96l-.36,5.71c.23-3.41.45-6.85,1.47-10.13-.6,1.74-1.19,3.49-1.79,5.23.36-.94,1.85-3.4-.24-.21-.55,1.12-1.33,2.04-2.35,2.75-1.67,1.31-1.85,1.58-.54.8-1.64.83-3.29,1.67-4.93,2.5l1.02-.34c-1.87.39-3.73.77-5.6,1.16.69-.16,1.39-.2,2.1-.14l-5.71-.36c.72.07,1.43.21,2.12.44-1.74-.6-3.49-1.19-5.23-1.79.7.26,1.39.52,2.07.85.58.29,3.78,2.32.57.21-2.93-1.93-.67-.39-.05.09.72.55,1.42,1.13,2.1,1.73,1.23,1.08,2.34,2.25,3.5,3.39,1.8,1.77-3-3.64-1.47-1.63.55.72,1.16,1.41,1.71,2.13,4.06,5.28,7.31,11.13,10.33,17.05l-2.5-4.93c1.17,2.31,2.3,4.64,3.43,6.97,2.4,4.95,5.36,9.68,10.67,12.02,4.46,1.97,8.95,2.56,13.74,1.57,10-2.07,18.07-11.58,16.97-22.19-2.53-24.52-5.79-48.96-9.79-73.29-11.75,5.87-23.5,11.73-35.25,17.6,1.5,1.2,3.01,2.39,4.51,3.59,4.2,3.34,9.97,5.81,15.48,5.17,5.23-.6,11.5-2.73,14.6-7.29,2.6-3.83,4.89-7,5.63-11.76.66-4.31.56-9.37-1.25-13.41-2.31-5.16-5.47-9.45-10.67-12.02-4.75-2.35-11.91,3.17-16.91,5.18-11.13,4.49-16.09,9.59-12.65,21.04,3.44,11.41,8.65,22.12,13.44,32.99,4.87,11.04,8.79,22.32,11.26,34.15-.39-1.87-.77-3.73-1.16-5.6,2.68,13.39,3.6,26.99,2.76,40.62l.36-5.71c-.43,6.14-1.21,12.23-2.34,18.28-2.05,10.95,4.84,12.45,16.33,14.23,11.3,1.75,23.3,5.92,25.5-5.81,4.71-25.16,3.63-50.54-2.36-75.35-5.24-21.71-17.15-40.73-23.56-62-13.41,4.73-26.82,9.47-40.23,14.2l.36.8-1.16-5.6.14.87.36-5.71-.08.88c.6-1.74,1.19-3.49,1.79-5.23l2.24-2.99c10.03-.71,20.06-1.41,30.08-2.12-1.5-1.2-3.01-2.39-4.51-3.59-6.8-5.42-12.71,5.66-20.58,9.66-6.97,3.54-16.03-.32-14.67,7.94,4,24.33,7.26,48.77,9.79,73.29,13.8-2.87,27.59-5.73,41.39-8.6-6.53-13.51-13.09-26.16-23.39-37.19-4.82-5.16-11.02-10.21-17.64-12.71-6.81-2.58-13.68-3.47-20.77-1.28s-12.67,7.39-16,13.72c-4.29,8.13-4.5,17.6-4.76,26.57-.2,7,.3,14.02,1.5,20.91,1.42,8.16,3.06,16.79,6.47,24.41,4.56,10.19,11.04,17.55,20.42,23.53,7.27,4.63,15.94,7.15,24.08,9.71,7.63,2.4,15.41,4.28,23.27,5.72,10.51,1.92,20.79-4.02,24.23-14.09,3.32-9.72-.87-21.5-10.58-25.95-11.81-5.41-23.63-10.79-35.41-16.26-5.77-2.68-11.53-5.38-17.25-8.15-1.16-.56-2.33-1.12-3.49-1.69-.69-.34-1.37-.69-2.05-1.05-1.91-1.11-1.37-.7,1.6,1.23-.5-.65-1.95-1.85-2.61-2.22,2.4,2.84,2.98,3.38,1.73,1.64-.36-.57-.68-1.16-.97-1.77.83,1.64,1.67,3.29,2.5,4.93-.69-1.58-1.18-3.15-1.54-4.83.39,1.87.77,3.73,1.16,5.6-.48-2.82-.55-5.62-.42-8.47-.12,1.9-.24,3.81-.36,5.71.2-2.88.58-5.73,1.04-8.57,1.76-10.99-5.01-23.31-16.7-25.12-11.22-1.74-23.01,4.96-25.12,16.7-2.62,14.62,3.56,26.98,13.23,37.43,2.54,2.75,5.4,5.16,8.14,7.7.67.62,1.35,1.25,2,1.9.61.61,2.93,3.13.43.35s-.28-.22.22.5c.63.89,1.18,1.81,1.71,2.76-.83-1.64-1.67-3.29-2.5-4.93l.48.98c9.85-8.74,19.7-17.48,29.55-26.23.54.35,3.79,3.14,2.01,1.16-.58-.64-2.92-3-.36-.2,2.37,2.58.7.67.23-.04s-.92-1.49-1.34-2.26c.83,1.64,1.67,3.29,2.5,4.93-1.12-2.26-1.93-4.54-2.52-6.99l1.16,5.6c-.62-3.03-.81-6.01-.71-9.1-.12,1.9-.24,3.81-.36,5.71.49-7.6,2.72-14.84,5.15-22.02l-1.79,5.23c2.34-6.8,4.96-13.53,8.52-19.79.45-.79.93-1.57,1.39-2.35,1.6-2.69-1.09,1.87-1.23,1.81.05.02,3.09-4.04,3.29-4.28.25-.29,3.78-3.71,3.71-3.89.09.25-4.09,3.36-1.62,1.51.87-.66,1.73-1.31,2.63-1.94,9.14-6.39,12.54-20.36,5.58-29.64-3.25-4.34-7.89-8.03-13.4-8.88-6.04-.93-10.87.5-16.24,3.3-11.81,6.15-23.73,12.96-32.2,23.53-11.18,13.95-15.57,30.88-10.86,48.27,1.28,4.73,6.24,10.07,10.67,12.02s8.95,2.56,13.74,1.57c4.42-.91,8.91-3.07,11.8-6.71,3.76-4.72,4.86-9.5,5.17-15.48l.06-1.11c-.12,1.9-.24,3.81-.36,5.71.22-2.2.68-4.28,1.39-6.37l-1.79,5.23c.77-2.02,2.21-3.91,2.89-5.9-1.93,2.81-2.42,3.56-1.47,2.22.32-.46.66-.91,1.01-1.35.69-.89,1.42-1.76,2.18-2.6,1.51-1.7,3.19-3.21,4.79-4.82-4.56,4.57-1.81,1.62-.64.64.89-.75,1.78-1.49,2.68-2.23,9.59-7.94,18.14-15.57,24.6-26.32,2.71-4.51,2.68-11.75.99-16.54-1.71-4.84-5.9-9.92-10.67-12.02-11.31-4.99-22.41-.55-28.57,9.68h0Z"/>
        <g class="cls-4">
          <path class="cls-10" d="M369.22,1170.38c-16.01-3.33-28.75-15.15-40.01-27.02-10.86-11.44-21.94-26.41-17.53-41.55,3.12-10.71,13.68-18.04,24.66-20.01,20.18-3.63,41.24,9.21,50.11,27.7,8.87,18.49,6.62,41.07-2.83,59.26-13.92-19.5-22.68-42.64-25.14-66.47-1.26-12.21-.66-25.36,6.25-35.51,5.72-8.4,14.86-16.43,25.01-16.24,3.99.08,14.88,2.87,18.49,4.78,18.81,9.96,17.76,39.15,12.23,59.7-5.52,20.55-17.97,38.44-30.2,55.86"/>
          <path class="cls-8" d="M370.06,1166.2c-15.52-3.43-27.47-14.86-38.05-26.05-9.85-10.42-23.15-27.13-14.1-41.93,7.32-11.97,23.31-14.76,35.94-11.26,13.83,3.83,25.37,14.89,30.4,28.22,6.38,16.91,3.61,35.88-4.45,51.7l7.35-.52c-11.73-16.59-19.87-35.71-23.24-55.77-3.14-18.68-2.98-39.53,14.08-51.62,7.02-4.98,13.35-4.41,21.22-2.29,6.36,1.71,11.54,4.39,15.17,10.09,7.81,12.27,5.99,29.62,2.97,43.09-4.87,21.74-17.71,40.29-30.3,58.24-3.13,4.46,3.29,10.09,6.44,5.59,12.85-18.32,25.88-37.11,31.49-59.09,4.09-16.03,5.78-35.38-2.31-50.48-3.68-6.86-9.58-11.85-16.93-14.33-7.98-2.69-16.59-4.92-24.81-1.98-9.59,3.43-17.84,12.04-22.33,21.03-4.73,9.47-5.42,20.49-4.63,30.88,1.95,25.59,11.34,50.55,26.13,71.46,1.86,2.63,5.88,2.36,7.35-.52,8.49-16.66,11.53-36.38,6.13-54.5-4.93-16.54-17.73-30.47-34.05-36.28-15.56-5.54-34.33-3.22-45.72,9.64-13.5,15.25-5.79,35.11,5.47,49,12.59,15.53,28.97,31.6,49.11,36.05,5.37,1.19,7.04-7.18,1.68-8.36h0Z"/>
        </g>
        <path class="cls-11" d="M346.21,1170.99c-14.62,3.3-29.55,5.06-44.13,8.57-13.57,3.26-26.6,8.39-38.26,16.13-20.85,13.82-37.25,35.53-40.47,60.78-1.6,12.57-.25,25.68,4.64,37.42s13.68,22.04,24.44,29.49c22.43,15.51,50.24,22.85,77.11,25.33,27.7,2.55,55.56.32,83.01-3.73,29.19-4.31,58.55-10.47,85.02-23.99,23.58-12.04,45.15-30.53,53.19-56.56,3.99-12.91,4.14-27.26-.74-39.96-4.07-10.59-11.35-19.68-20.15-26.75-19.85-15.92-45.68-22.93-70.26-27.47-29.73-5.49-60.35-6.52-90.37-2.96-7.42.88-14.79,2.06-22.12,3.48-5.32,1.03-4.78,9.56.6,8.51,27.87-5.42,56.5-6.97,84.77-4.23,25.19,2.43,51.58,7.22,74.5,18.39,19.93,9.72,37.25,26.12,38.18,49.57,1.04,26.3-16.58,48.27-37.39,62.2-22.66,15.17-49.53,23.02-76.09,27.99-26.05,4.88-52.69,8.19-79.22,8.1-25.82-.09-52.01-3.86-75.79-14.3-11.33-4.97-22.52-11.3-30.91-20.58-7.92-8.75-12.64-20.07-14.04-31.73-2.91-24.08,7.66-46.87,25.27-62.95,8.99-8.21,19.7-14.65,31.05-19,13.09-5.02,26.95-7.34,40.7-9.74,6.8-1.19,13.58-2.43,20.31-3.96,5.34-1.21,2.47-9.24-2.84-8.05h0Z"/>
        <path class="cls-6" d="M255.39,1252.26c7.72,0,7.73-12,0-12s-7.73,12,0,12h0Z"/>
        <path class="cls-6" d="M274.15,1250.5c7.72,0,7.73-12,0-12s-7.73,12,0,12h0Z"/>
        <path class="cls-11" d="M309.26,1192.2c13.17,42.74,39.77,89.25,24.1,135-.75,2.19-.3,4.58,1.94,5.71,1.85.94,4.97.24,5.71-1.94,16.69-48.72-9.63-95.95-23.7-141.62-1.62-5.24-9.66-2.41-8.05,2.84h0Z"/>
        <path class="cls-11" d="M388.02,1172.25c21.16,45.47,28.87,96.63,21.69,146.29-.78,5.42,7.58,7.12,8.36,1.68,7.39-51.12-.21-103.97-22.01-150.82-2.29-4.93-10.37-2.15-8.05,2.84h0Z"/>
        <path class="cls-11" d="M457.63,1184.61c19.02,38.76,29.62,81.16,30.97,124.31.17,5.49,8.68,4.88,8.51-.6-1.37-43.83-12.11-87.19-31.43-126.55-2.39-4.86-10.47-2.09-8.05,2.84h0Z"/>
        <path class="cls-6" d="M282.23,1255.08c-2.73,1.96-5.47,3.9-8.41,5.55-.36.2-.73.4-1.1.6-.34.18-.37.19-.1.05-.19.09-.37.18-.56.27-.75.36-1.51.69-2.29.99s-1.56.57-2.36.8c-.38.11-.77.2-1.15.3-.36.08-.33.08.09-.01-.17.03-.34.06-.5.09-1.35.24-2.73.34-4.1.31-.17,0-.34,0-.51-.02.43.03.46.03.09,0-.34-.04-.68-.07-1.02-.11-.67-.09-1.34-.22-2-.39-.33-.08-.65-.18-.97-.28.79.23-.25-.1-.4-.16-.62-.25-1.22-.54-1.8-.87-.14-.08-1.03-.69-.37-.21-.27-.2-.54-.39-.8-.6s-.51-.43-.75-.66c-.11-.1-.85-.9-.32-.3-1.1-1.25-2.95-1.96-4.45-.84-1.25.94-2.02,3.1-.84,4.45,3.68,4.2,8.69,6.14,14.21,6.36s11.07-1.89,15.9-4.64c2.83-1.61,5.49-3.5,8.13-5.39,1.36-.97,1.89-3.04.84-4.45s-2.99-1.88-4.45-.84h0Z"/>
        <path class="cls-5" d="M256.3,1204.88c-7.37-8.58-11.03-19.28-10.47-30.58.17-3.42-5.15-3.01-5.32.38-.6,12.09,3.5,24.03,11.39,33.21,2.21,2.57,6.64-.4,4.4-3.01h0Z"/>
        <path class="cls-5" d="M246.37,1172.65c.11-1.84-.42-3.44-1.25-5.06-.76-1.47-3.28-1.52-4.21-.24-2.63,3.58,2.14,8.35,5.43,5.08,1.28-1.28,1.61-3.15.89-4.81-.89-2.07-3.08-2.8-5.16-2.82-1.18,0-2.19,1.05-2.43,2.13-1.24,5.58,6.63,8.51,10.92,6.8,2.78-1.11,3.75-4.47,1.61-6.71s-6.03-2.87-9.01-2.38c-1.42.24-2.58,1.31-2.47,2.85.09,1.33,1.42,2.71,2.85,2.47,1.22-.2,2.43-.25,3.62.15.26.1.52.21.77.34.7.45.93-.11.69-1.69.05.02-.53.15-.62.13-.68-.18-1.37-.12-2.08-.4-.32-.13-.61-.36-.92-.47-.74-.28-.06-.42-.14-.04l-2.43,2.13c.29.09.31.03.07-.19-.6-.68-.14-1.28,1.38-1.81l1.22.6.23,1.17-.6,1.22.19-.26-4.21-.24c.39.76.38,1.59.33,2.42-.08,1.44,1.54,2.56,2.85,2.47,1.59-.11,2.39-1.4,2.47-2.85h0Z"/>
        <path class="cls-5" d="M263.15,1202.48c.91-11.76-6.05-30.71,6.17-38.71,2.87-1.88-.13-6.28-3.01-4.4-14.48,9.47-7.32,28.15-8.39,42.06-.26,3.38,4.96,4.47,5.23,1.05h0Z"/>
        <path class="cls-5" d="M271.47,1161.92c3.05-3.27,1.92-8.64-1.89-10.74-1.27-.7-2.94-.03-3.57,1.21-2.56,5.01,1.4,10.76,6.74,11.01.96.05,1.76-.73,2.2-1.48,1.86-3.1-.19-6.66-3.31-7.71-1.86-.63-3.86,1.77-3.04,3.5.88,1.87,2.43,3.02,4.57,2.86,3.42-.26,3.05-5.58-.38-5.32l.84.69c-1.01,1.17-2.03,2.33-3.04,3.5-.47-.16-.18-.28-.42.13l2.2-1.48c-1.46-.07-2.12-2.28-1.58-3.33l-3.57,1.21c.91.5.85,1.78.22,2.47-2.34,2.52,1.69,6,4.03,3.5h0Z"/>
        <path class="cls-11" d="M412.53,1204.71c5.49,3.6,10.97,7.21,16.46,10.81,4.93,3.24,12.61,1.91,17.18-1.21,5.47-3.74,7-9.05,7.39-15.29.23,1.77-.07,3.43-.9,5.01.82-1.57.52-1.19-.91,1.16,1.21-1.3.83-.99-1.14.94-2.58,1.14-3.03,1.38-1.35.73-7.57-4.96-15.13-9.93-22.7-14.89,2.18,11.13,5.26,21.93,8.35,32.83.73,2.56,1.44,5.13,2.1,7.71.33,1.29.65,2.58.96,3.87.17.73,1.41,5.09.2.7,1.27,4.65,1.65,9.84,1.89,14.64.11,2.18.14,4.36.09,6.54-.03,1.34-.82,4.44.06.18-.23,1.12-.21,2.42-.34,3.55-.52,4.53-1.38,9.02-2.57,13.42-.26.96-.53,1.91-.82,2.86-.23.76-.47,1.51-.72,2.27l.65-1.94c.03,1.85-1.91,4.91-2.68,6.61-1.96,4.34-4.29,8.49-6.89,12.48,10.46.62,20.93,1.25,31.39,1.87-.81-2.22-1.54-4.46-2.17-6.73-.31-1.14-.58-2.28-.87-3.43-.99-4,.64,3.93-.03-.14-.75-4.5-1.37-9-1.75-13.55-.79-9.39-.89-18.83-1.24-28.25-.78-20.74-3.66-41.06-14.27-59.26-4.27-7.33-14.68-9.05-21.74-5.46-7.89,4-10.71,12.45-8.44,20.77,2.56,9.4,7.99,17.9,13.9,25.54,5.66,7.32,11.2,14.37,15.96,22.32,1.09,1.82-1.4-3.06-.06-.14.51,1.11,1.04,2.21,1.53,3.32.98,2.24,1.87,4.51,2.69,6.81,1.58,4.43,2.88,8.97,3.97,13.55.22.95.65,2.03.68,3.01-.15-4.41-.18-.87.05.37.45,2.44.86,4.88,1.22,7.33.73,4.89,1.29,9.8,1.77,14.72.87,8.87,8.88,16.9,18.22,15.82s16.31-8.66,15.82-18.22c-.95-18.39-2.84-36.72-5.66-54.92-11.04,2.29-22.07,4.59-33.11,6.88,4.72,19.88,9.44,39.76,14.16,59.64,3.47-7.26,6.94-14.51,10.41-21.77-10.02,2.45-19.32,6.18-28.47,10.92-.45.23-.89.47-1.33.7-2.41,1.28,1.74-.79,1.94-.98-.82.77-2.5,1.05-3.51,1.47-2.25.93,4.4-.64,2.6-.52,1.27-.08,4.74.6,6.73,1.47,4.33,1.9,7.39,6.61,7.8,11.2-.25-2.79-.59,4.7-.12,1.12-11.25-.72-22.5-1.44-33.75-2.17.18.71.29,1.44.33,2.17.31-2.72.33-3.13.07-1.25-.45,1.79-.31,1.46.41-1-.86,1.61-.63,1.35.68-.8-5.27,7.19-5.92,18,1.7,24.07,6.74,5.37,18.43,5.99,24.07-1.7,5-6.82,8.49-15.26,6.78-23.9-.88-4.44-2.08-8.7-5.83-11.68-2.99-2.38-6.27-3.75-10.1-3.99-7.94-.5-16.69,5.06-17.81,13.51-1.29,9.78.81,19.87,10.31,24.8,5.98,3.1,13.13,2.72,19.23.18,2.56-1.06,4.99-2.42,7.44-3.7.36-.19.73-.38,1.09-.57,1.28-.67.69-.37-1.78.9.09.1,4.25-1.97,4.65-2.14,5.89-2.52,12.01-4.43,18.23-5.95,3.75-.92,8.09-5.08,9.62-8.54,1.96-4.44,1.91-8.53.79-13.23-4.72-19.88-9.44-39.76-14.16-59.64-.89-3.75-5.11-8.1-8.54-9.62-3.57-1.57-7.16-2.05-10.99-1.25-7.69,1.59-14.88,9.35-13.58,17.75,2.83,18.2,4.72,36.52,5.66,54.92,11.35-.8,22.69-1.6,34.04-2.4-1.99-20.33-5.37-41.28-14.58-59.71-4.7-9.41-10.45-17.5-16.96-25.72-2.83-3.57-5.64-7.19-8.07-11.05-.6-.95-1.14-1.94-1.72-2.9-1.61-2.67,1,2.4.23.45-.91-2.29-1.81-4.48-2.47-6.87-10.06,5.1-20.12,10.2-30.18,15.31.57.97,1.07,2.17,1.72,3.08-2.35-3.32-.54-.99,0,.25.84,1.94,1.59,3.92,2.25,5.93s1.24,4.04,1.75,6.09c.18.75.36,1.5.52,2.25l-.46-2.21c.07,1.11.43,2.33.61,3.43,1.45,8.99,1.85,18.11,2.14,27.19.63,19.36,1.09,39.02,7.79,57.46,2.33,6.4,8.27,10.77,15.01,11.19,7.36.47,12.52-3.39,16.38-9.32,11.72-17.97,17.25-39.74,16.74-61.11-.27-11.43-2.87-22.78-5.85-33.77-1.4-5.15-2.93-10.25-4.38-15.38-.73-2.57-1.43-5.14-2.09-7.72-.33-1.29-.65-2.58-.95-3.88-.15-.65-.3-1.3-.44-1.95.46,2.31.5,2.5.12.57-1.08-5.52-2.82-9.68-7.65-12.89-4.44-2.95-9.93-3.88-15.05-2-4.81,1.77-9.4,4.76-12.49,8.91-4.1,5.52-5.46,11-5.88,17.82,8.19-5.5,16.38-11,24.57-16.5-5.49-3.6-10.97-7.21-16.46-10.81-3.44-2.26-9.56-2.09-13.23-.79-3.87,1.37-7.93,4.72-9.62,8.54-1.81,4.1-2.52,8.95-.79,13.23,1.77,4.4,4.61,7.04,8.54,9.62h0Z"/>
        <path class="cls-11" d="M478.94,1287.38c-5.49.61-11.05,1.7-16.29,3.45-2,.67-3.92,1.5-5.86,2.31-.22.09-2.72,1.3-2.89,1.1l2.14-.39c2.61.41,2.98.41,1.09,0-8.67-2.13-18.73,4.52-20.1,13.36-1.46,9.46,4.08,17.82,13.36,20.1,7.04,1.73,13.59-.3,20.03-2.95,2.16-.89,4.37-1.65,6.63-2.26l1.23-.32c1.9-.44,1.65-.39-.74.15.74-.55,2.94-.42,3.79-.51,8.86-.98,16.91-8.8,15.82-18.22-1.03-8.89-8.72-16.87-18.22-15.82h0Z"/>
        <path class="cls-11" d="M488.21,1282.35c.77-9.6-.35-18.49-3.68-27.58-2.52-6.88-5.92-13.4-8.42-20.28s-4.1-13.66-5.99-20.53c-2.31-8.41-5.33-16.13-9.3-23.89-8.42,7.5-16.85,15-25.27,22.51,1.64,1.34,3.05,3.19,4.74,4.39l-1.48-1.66c.46.54.91,1.1,1.35,1.66.55.7,1.07,1.42,1.58,2.15,1.13,1.62,2.1,3.32,3.12,5.01,1.97,3.26-1.62-3.56-.02-.09.46.99.92,1.98,1.35,2.98,3.36,7.78,5.59,15.99,7.74,24.17,2.27,8.65,13.71,13.66,21.77,10.41,9.15-3.69,12.85-12.5,10.41-21.77-5.14-19.54-11.96-39.78-28.19-53.01-6.63-5.4-16.01-5.48-22.44.25-2.66,2.37-4.91,5.65-5.48,9.27-.75,4.85.43,8.67,2.64,12.99-2.15-4.2.28.88.63,1.73.63,1.54,1.21,3.1,1.76,4.68,1.09,3.16,2.02,6.38,2.91,9.6,1.78,6.47,3.35,13.01,5.56,19.35,2.21,6.33,5.22,12.34,7.72,18.55.62,1.54,1.21,3.09,1.75,4.67.27.8,1.75,3.95,1.4,4.71-.47-2.5-.54-2.81-.2-.91.13.8.23,1.6.3,2.4.1,1.1-.12,6.49.28,1.53-.38,4.75-.16,8.9,2.64,12.99,2.31,3.38,6.6,6.47,10.72,7.1,8.23,1.27,19.34-3.85,20.1-13.36h0Z"/>
        <path class="cls-11" d="M405.13,1209.09c2.91,19.14,5.8,38.31,7.36,57.61.76,9.5,1.2,19.02,1.14,28.55-.02,2.49-.06,4.98-.15,7.47-.03.9-.07,1.81-.11,2.71-.03.68-.12,5.34-.02.86-.11,4.95-.87,9.98-1.53,14.88-1.19,8.82,3.86,18.62,13.36,20.1,8.65,1.34,18.82-3.9,20.1-13.36,5.48-40.62,0-81.02-6.11-121.21-1.34-8.8-8.55-16.94-18.22-15.82-8.58.99-17.25,8.77-15.82,18.22h0Z"/>
        <path class="cls-11" d="M398.49,1180.05c1.63,1.74,2.74,3.54,3.75,5.69l8.21-8.21c-1.18-.55-2.36-1.1-3.53-1.64l2.97,5.18c-.11,2.08,3.76,1.2,5.55,1.32,1.92.12,3.83.29,5.74.51,4.24.48,8.46,1.21,12.66,1.97,8.2,1.5,16.38,3.11,24.57,4.68,7.55,1.44,10.78-10.12,3.19-11.57-12.17-2.33-24.32-4.97-36.6-6.6-9.44-1.26-26.36-4.18-27.1,9.7-.1,1.93,1.18,4.35,2.97,5.18,1.18.55,2.36,1.1,3.53,1.64,5.56,2.58,10.83-2.63,8.21-8.21-1.43-3.05-3.32-5.66-5.63-8.12-5.3-5.64-13.77,2.86-8.49,8.49h0Z"/>
        <path class="cls-11" d="M228.3,1246.65c.18,2.31.53,4.6,1.28,6.8,1.01,2.96,4.17,5.23,7.38,4.19,2.94-.95,5.27-4.2,4.19-7.38-.45-1.33-.77-2.68-.96-4.07l.21,1.6c-.04-.38-.08-.76-.11-1.14-.24-3.12-2.59-6.15-6-6-3.04.14-6.26,2.65-6,6h0Z"/>
        <path class="cls-11" d="M292.29,1188.66c-3.44-.32-6.94-.22-10.06,1.43s-5.56,4.49-8.05,6.83c-5.66,5.28,2.84,13.75,8.49,8.49,1.51-1.41,3.06-3.38,4.82-4.48,1.35-.85,3.28-.41,4.82-.26,3.23.31,6-2.98,6-6,0-3.5-2.76-5.69-6-6h0Z"/>
        <path class="cls-11" d="M286.1,1194.82c-5.59-.99-10.42.44-14.91,3.88-3.99,3.05-6.87,7.4-11.52,9.51-7.02,3.19-.93,13.53,6.06,10.36,3.49-1.58,6.29-4.16,8.97-6.85,1.91-1.92,5.08-5.89,8.21-5.34,7.55,1.33,10.79-10.23,3.19-11.57h0Z"/>
        <path class="cls-11" d="M310.22,1194.98c7.72,0,7.73-12,0-12s-7.73,12,0,12h0Z"/>
      </g>
      <g class="cls-3">
        <g>
          <path class="cls-2" d="M574.3,1227.98s2.11-.07,5.96-.61"/>
          <path class="cls-1" d="M592.19,1225.04c16.13-3.93,41.74-13.09,70.79-34.35,49.31-36.09,22.54-104.03-6.69-111.09-29-7-49.02,17.29-56.5,30.25-8.5,14.75-39.43,136.01,104.2,160.57,111.52,19.07,167.85-5.54,188.63-18.61"/>
          <path class="cls-2" d="M897.65,1248.39c3.17-2.32,4.64-3.79,4.64-3.79"/>
        </g>
      </g>
    </g>
    <text class="cls-14" transform="translate(388.47 567.3)"><tspan x="0" y="0">you found busy bee!</tspan><tspan x="-178.99" y="86.41">she’s working to make this page available</tspan><tspan x="-226.85" y="129.61">as soon as possible! meanwhile, stay hydrated </tspan><tspan x="-227.65" y="172.81">and make sure to visit this page again soon &lt;3 </tspan><tspan x="168.96" y="216.02"> </tspan></text>
    <path class="cls-13" d="M66.99,2406.47c-.17-5.78.12-11.5.87-17.23l-1.29,9.57c1.3-8.84,3.66-17.39,7.01-25.67l-3.63,8.6c3.69-8.73,8.38-16.88,14.09-24.44-1.88,2.43-3.75,4.86-5.63,7.29,5.48-7.05,11.71-13.37,18.72-18.91l-7.29,5.63c3.75-2.87,7.65-5.48,11.74-7.84-14.54-1.88-29.08-3.75-43.63-5.63,22.15,25.11,44.3,50.21,66.45,75.32,15.59,17.67,45.32,11.62,56.54-7.29,6.26-10.54,13.13-20.68,20.6-30.4l-5.63,7.29c15.43-19.84,33.2-37.66,53.02-53.11-2.43,1.88-4.86,3.75-7.29,5.63,8.65-6.67,17.73-13.98,27.83-18.3l-8.6,3.63c1.66-.6,3.23-1.07,4.96-1.44-3.19.43-6.38.86-9.57,1.29,1.74-.22,3.23-.28,4.98-.15-3.19-.43-6.38-.86-9.57-1.29,1.12.14,2.21.41,3.27.82l-8.6-3.63c1.34.6,2.45,1.22,3.65,2.06l-7.29-5.63c1.47,1.23,2.69,2.54,3.86,4.06l-5.63-7.29c2.23,3.23,3.87,6.72,5.41,10.33l-3.63-8.6c6.68,15.86,13.36,31.71,20.04,47.57,8.03,19.06,15.24,39.73,34.84,50.13,12.44,6.61,27.53,8.32,40.91,3.56,12.04-4.29,21.38-11.75,31.06-19.91,10.92-9.21,20.99-19.39,32.3-28.15l-7.29,5.63c6.23-4.7,12.75-8.91,19.88-12.13l-8.6,3.63c4.89-2.06,9.93-3.43,15.18-4.21l-9.57,1.29c5.29-.67,10.53-.71,15.82-.07l-9.57-1.29c4.25.62,8.33,1.67,12.31,3.27l-8.6-3.63c3.03,1.32,5.83,2.91,8.49,4.88-2.43-1.88-4.86-3.75-7.29-5.63,2.24,1.79,4.18,3.72,5.96,5.97l-5.63-7.29c1.47,2.03,2.69,4.13,3.72,6.42l-3.63-8.6c5.13,12.77,6.67,26.17,13.18,38.56,12.9,24.56,44.23,32.94,67.92,18.63,8.97-5.42,17.02-13.29,25.1-19.98,7.22-5.97,14.44-11.94,21.66-17.91,14.44-11.94,28.87-23.89,43.31-35.83,16.04-13.27,31.8-27.03,48.23-39.81l-7.29,5.63c3.56-2.65,7.24-4.97,11.32-6.76l-8.6,3.63c1.96-.75,3.88-1.33,5.94-1.71-3.19.43-6.38.86-9.57,1.29,1.5-.17,2.85-.21,4.36-.12-3.19-.43-6.38-.86-9.57-1.29,1.5.24,2.73.57,4.14,1.12l-8.6-3.63c.92.42,1.78.94,2.58,1.55l-7.29-5.63c1.16.98,2.05,1.92,2.98,3.12-1.88-2.43-3.75-4.86-5.63-7.29.81,1.25,1.45,2.46,2.07,3.82-1.21-2.87-2.42-5.73-3.63-8.6,3.41,8.93,4.21,19.04,5.87,28.4,1.93,10.84,3.85,21.67,5.78,32.51,3.9,21.91,5,47.23,21.81,63.82,15.21,15,39.63,17.01,57.41,5.4,10.11-6.6,17.73-16.05,25.83-24.82,7.58-8.21,15.16-16.41,22.75-24.62,6.95-7.52,13.55-16.17,21.48-22.66l-7.29,5.63c.79-.61,1.62-1.13,2.51-1.57-2.87,1.21-5.73,2.42-8.6,3.63.87-.43,1.78-.72,2.74-.87l-9.57,1.29c1-.15,1.99-.12,2.97.09-3.19-.43-6.38-.86-9.57-1.29l1.43.44-8.6-3.63c.94.38,1.81.88,2.62,1.5l-7.29-5.63c1.66,1.38,3.05,2.87,4.41,4.54-1.88-2.43-3.75-4.86-5.63-7.29,16.87,22.25,30.69,46.88,41.63,72.55l-3.63-8.6c.49,1.15.97,2.3,1.44,3.45,1.71,6.1,4.8,11.39,9.26,15.89,4.49,4.46,9.79,7.55,15.89,9.26,11.46,3.16,27.09.38,35.03-9.26,28.86-35.03,59.62-68.43,92.16-100.07l-56.54-7.29c7.21,15.17,14.42,30.34,21.63,45.51,6.8,14.3,12.56,29.68,22.29,42.27,7.23,9.35,16.56,17.44,28.38,20.39,13.23,3.31,27.44,1.79,39.13-5.56,9.28-5.83,16.22-14.2,21.91-23.46,3.2-5.2,6.04-10.49,9.74-15.38l-5.63,7.29c4.27-5.42,9.08-10.25,14.54-14.49-2.43,1.88-4.86,3.75-7.29,5.63,4.64-3.44,9.53-6.32,14.83-8.61l-8.6,3.63c4.84-1.95,9.77-3.3,14.93-4.02-3.19.43-6.38.86-9.57,1.29,3.98-.44,7.88-.49,11.87-.07-3.19-.43-6.38-.86-9.57-1.29,4.83.67,9.42,1.95,13.91,3.84l-8.6-3.63c3.98,1.81,7.66,4,11.13,6.65l-7.29-5.63c2.98,2.41,5.64,5.05,8.05,8.04l-5.63-7.29c2.28,3.02,4.15,6.19,5.65,9.67-1.21-2.87-2.42-5.73-3.63-8.6,1.21,3.12,2.03,6.22,2.49,9.53-.43-3.19-.86-6.38-1.29-9.57l.14,1.43c.98,9.78,3.36,18.28,10.54,25.46,6.24,6.24,16.49,10.95,25.46,10.54s18.97-3.48,25.46-10.54c6.09-6.63,11.48-16.11,10.54-25.46-1.23-12.38-3.65-23.24-10.04-34.15-6.18-10.56-14.45-18.4-24.13-25.61-14.45-10.78-34.69-17.04-52.75-15.58-23.05,1.87-42.33,10.71-60.02,25.37-7.65,6.34-13.86,14.3-19.58,22.36-4.03,5.67-6.97,12.02-11.07,17.64,1.88-2.43,3.75-4.86,5.63-7.29-1.44,1.83-2.94,3.47-4.71,4.97l7.29-5.63c-1.08.8-2.11,1.44-3.31,2.05l8.6-3.63c-1.27.51-2.4.83-3.74,1.08l9.57-1.29c-1.44.11-2.67.08-4.1-.1l9.57,1.29c-.88-.16-1.73-.42-2.55-.75l8.6,3.63c-1.26-.58-2.33-1.21-3.48-1.99l7.29,5.63c-1.88-1.51-3.45-3.17-4.94-5.05l5.63,7.29c-3.99-5.47-6.66-11.68-9.56-17.77-3.45-7.27-6.91-14.54-10.36-21.81-7.06-14.85-14.12-29.71-21.18-44.56-4.73-9.95-15.96-15.8-26.3-17.19-11.34-1.52-21.95,1.84-30.24,9.9-32.54,31.63-63.31,65.04-92.16,100.07,20.06,5.3,40.11,10.59,60.17,15.89-7.64-18.48-15.92-36.53-26.12-53.75-4.45-7.51-9.17-14.85-14.17-22-8.47-12.12-16.57-23.67-30.66-29.62-18.54-7.82-37.94-1.94-51.83,11.9-6.7,6.68-12.92,13.93-19.35,20.88s-13.27,14.36-19.9,21.54c-6.33,6.85-12.38,14.42-19.44,20.54l7.29-5.63c-1.26.97-2.45,1.77-3.84,2.53l8.6-3.63c-.89.43-1.82.75-2.78.96l9.57-1.29c-.98.2-1.97.25-2.96.15,3.19.43,6.38.86,9.57,1.29-.83-.09-1.63-.28-2.41-.58,2.87,1.21,5.73,2.42,8.6,3.63-.74-.29-1.44-.67-2.09-1.13l7.29,5.63c-1-.79-1.77-1.56-2.59-2.54l5.63,7.29c-1.02-1.44-1.83-2.91-2.56-4.52,1.21,2.87,2.42,5.73,3.63,8.6-3.66-9.21-4.44-19.73-6.17-29.43-1.93-10.84-3.85-21.67-5.78-32.51-4.65-26.14-6.22-55.97-32.22-70.59-17.51-9.85-38.33-6.55-55.19,2.87-11.04,6.17-20.61,15.45-30.34,23.5-17.65,14.6-35.29,29.19-52.94,43.79-19.77,16.35-39.23,33.18-59.37,49.06l7.29-5.63c-1.69,1.24-3.37,2.3-5.28,3.18,2.87-1.21,5.73-2.42,8.6-3.63-.95.39-1.93.65-2.94.8,3.19-.43,6.38-.86,9.57-1.29-1.08.11-2.05.14-3.12.08,3.19.43,6.38.86,9.57,1.29-.96-.14-1.8-.34-2.72-.65l8.6,3.63c-.85-.38-1.58-.78-2.35-1.3l7.29,5.63c-.99-.79-1.83-1.63-2.64-2.61l5.63,7.29c-1.25-1.7-2.23-3.49-3.11-5.41l3.63,8.6c-5.12-12.15-6.76-25.14-12.5-37.16-8.13-17.03-24.49-28.03-41.76-34.13-15.62-5.52-33.54-4.95-49.51-1.49-18.11,3.93-33.44,14.58-47.72,25.82-13.03,10.26-24.5,22.32-37.62,32.48l7.29-5.63c-2.71,2.03-5.44,3.84-8.52,5.28l8.6-3.63c-1.58.61-3.02,1.04-4.68,1.37l9.57-1.29c-1.63.15-3.03.15-4.64-.05l9.57,1.29c-.9-.16-1.77-.4-2.62-.72l8.6,3.63c-1.69-.73-3.14-1.61-4.61-2.72l7.29,5.63c-1.43-1.25-2.67-2.58-3.86-4.05l5.63,7.29c-2.94-3.97-5.1-8.33-7.04-12.86l3.63,8.6c-7.48-17.76-14.96-35.52-22.44-53.27-5.02-11.92-9.19-23.34-18.57-32.69-13.03-13-31.62-17.27-49.32-13.19-10.45,2.41-19.89,8.33-28.57,14.38s-17.2,12.61-25.43,19.35c-12.86,10.53-24.84,22.15-35.76,34.68-13.87,15.92-26.55,33.05-37.33,51.21l56.54-7.29c-22.15-25.11-44.3-50.21-66.45-75.32-10.5-11.9-30.43-13.25-43.63-5.63-43.57,25.17-71.78,74.74-70.27,125.18.56,18.8,16.15,36.89,36,36s36.61-15.84,36-36h0Z"/>
    <rect class="cls-13" y="2369" width="1126" height="68"/>
    <path class="cls-13" d="M897.26,2405.78c18.83,0,36.87-16.56,36-36-.87-19.5-15.82-36-36-36-18.83,0-36.87,16.56-36,36,.87,19.5,15.82,36,36,36h0Z"/>
    <path class="cls-13" d="M1063.89,2418.32c18.83,0,36.87-16.56,36-36-.87-19.5-15.82-36-36-36-18.83,0-36.87,16.56-36,36,.87,19.5,15.82,36,36,36h0Z"/>
    <path class="cls-13" d="M1053.14,2418.32c18.83,0,36.87-16.56,36-36-.87-19.5-15.82-36-36-36-18.83,0-36.87,16.56-36,36,.87,19.5,15.82,36,36,36h0Z"/>
    <path class="cls-13" d="M753.93,2407.57c18.83,0,36.87-16.56,36-36-.87-19.5-15.82-36-36-36-18.83,0-36.87,16.56-36,36,.87,19.5,15.82,36,36,36h0Z"/>
    <path class="cls-13" d="M597.27,2301.96c-13.76,7.76-27.51,15.51-41.27,23.27-12.56,7.08-19.06,21.93-17.19,35.87s11.91,26.57,25.79,29.93c36.6,8.86,74.61,13.21,112.27,12.33,18.81-.44,36.88-16.25,36-36-.86-19.13-15.83-36.47-36-36-20.48.48-40.92-.61-61.24-3.25l9.57,1.29c-13.95-1.88-27.77-4.48-41.46-7.79,2.87,21.93,5.73,43.87,8.6,65.8,13.76-7.76,27.51-15.51,41.27-23.27,16.42-9.25,23.34-33.09,12.92-49.25-10.7-16.6-31.69-22.82-49.25-12.92h0Z"/>
    <path class="cls-13" d="M393.8,2407.57c18.83,0,36.87-16.56,36-36-.87-19.5-15.82-36-36-36-18.83,0-36.87,16.56-36,36,.87,19.5,15.82,36,36,36h0Z"/>
    <path class="cls-13" d="M245.09,2317.65h-14.33c-9.23,0-18.93,4.02-25.46,10.54-6.24,6.24-10.95,16.49-10.54,25.46s3.48,18.97,10.54,25.46,15.7,10.54,25.46,10.54h14.33c9.23,0,18.93-4.02,25.46-10.54,6.24-6.24,10.95-16.49,10.54-25.46s-3.48-18.97-10.54-25.46-15.7-10.54-25.46-10.54h0Z"/>
    <path class="cls-13" d="M92.8,2409.36c18.83,0,36.87-16.56,36-36-.87-19.5-15.82-36-36-36-18.83,0-36.87,16.56-36,36,.87,19.5,15.82,36,36,36h0Z"/>
    <path class="cls-12" d="M712.6,1966.9c15.38,0,31.55-6.69,42.43-17.57s18.24-27.48,17.57-42.43-5.79-31.61-17.57-42.43-26.17-17.57-42.43-17.57c-15.38,0-31.55,6.69-42.43,17.57s-18.24,27.48-17.57,42.43,5.79,31.61,17.57,42.43,26.17,17.57,42.43,17.57h0Z"/>
    <path class="cls-12" d="M890.08,2043.96c15.38,0,31.55-6.69,42.43-17.57s18.24-27.48,17.57-42.43-5.79-31.61-17.57-42.43c-11.74-10.78-26.17-17.57-42.43-17.57-15.38,0-31.55,6.69-42.43,17.57s-18.24,27.48-17.57,42.43,5.79,31.61,17.57,42.43,26.17,17.57,42.43,17.57h0Z"/>
    <path class="cls-12" d="M544.46,2050.97c15.38,0,31.55-6.69,42.43-17.57s18.24-27.48,17.57-42.43-5.79-31.61-17.57-42.43-26.17-17.57-42.43-17.57c-15.38,0-31.55,6.69-42.43,17.57s-18.24,27.48-17.57,42.43,5.79,31.61,17.57,42.43,26.17,17.57,42.43,17.57h0Z"/>
    <path class="cls-12" d="M369.32,2041.63c15.38,0,31.55-6.69,42.43-17.57s18.24-27.48,17.57-42.43-5.79-31.61-17.57-42.43c-11.74-10.78-26.17-17.57-42.43-17.57-15.38,0-31.55,6.69-42.43,17.57s-18.24,27.48-17.57,42.43,5.79,31.61,17.57,42.43c11.74,10.78,26.17,17.57,42.43,17.57h0Z"/>
    <path class="cls-12" d="M161.48,2088.33c15.38,0,31.55-6.69,42.43-17.57s18.24-27.48,17.57-42.43-5.79-31.61-17.57-42.43-26.17-17.57-42.43-17.57c-15.38,0-31.55,6.69-42.43,17.57s-18.24,27.48-17.57,42.43,5.79,31.61,17.57,42.43,26.17,17.57,42.43,17.57h0Z"/>
    <path class="cls-12" d="M219.23,1787.01c7.72,0,7.73-12,0-12s-7.73,12,0,12h0Z"/>
    <path class="cls-12" d="M442.31,1822.23c7.72,0,7.73-12,0-12s-7.73,12,0,12h0Z"/>
    <path class="cls-12" d="M243.06,1909.12c7.72,0,7.73-12,0-12s-7.73,12,0,12h0Z"/>
    <path class="cls-12" d="M594.94,1679c7.72,0,7.73-12,0-12s-7.73,12,0,12h0Z"/>
    <path class="cls-12" d="M797.58,1765.88c7.72,0,7.73-12,0-12s-7.73,12,0,12h0Z"/>
    <path class="cls-12" d="M921.34,1843.37c7.72,0,7.73-12,0-12s-7.73,12,0,12h0Z"/>
    <path class="cls-12" d="M92.43,1895.38c7.72,0,7.73-12,0-12s-7.73,12,0,12h0Z"/>
    <path class="cls-12" d="M245.3,1910.4c3.19,3.91,6.37,7.83,9.56,11.74,2.44,3,6.66-1.27,4.24-4.24-3.19-3.91-6.37-7.83-9.56-11.74-2.44-3-6.66,1.27-4.24,4.24h0Z"/>
    <path class="cls-12" d="M443.17,1821.83c1.75,3.11,3.51,6.22,5.26,9.33,1.9,3.36,7.08.34,5.18-3.03l-5.26-9.33c-1.9-3.36-7.08-.34-5.18,3.03h0Z"/>
    <path class="cls-12" d="M217.11,1783.56c5.9.4,11.19,2.52,15.92,6.04,3.1,2.31,6.09-2.9,3.03-5.18-5.58-4.16-12.02-6.39-18.94-6.86-3.85-.26-3.84,5.74,0,6h0Z"/>
    <path class="cls-12" d="M90.93,1892.5h23.91c3.86,0,3.87-6,0-6h-23.91c-3.86,0-3.87,6,0,6h0Z"/>
    <path class="cls-12" d="M596.18,1677.14c4.08,1.02,7.6,3.01,10.56,6.01,2.72,2.75,6.96-1.49,4.24-4.24-3.65-3.69-8.16-6.28-13.2-7.55-3.75-.94-5.34,4.84-1.6,5.79h0Z"/>
    <path class="cls-12" d="M798.28,1765.25c4.4,5.33,8.8,10.67,13.2,16,2.46,2.98,6.68-1.28,4.24-4.24-4.4-5.33-8.8-10.67-13.2-16-2.46-2.98-6.68,1.28-4.24,4.24h0Z"/>
    <path class="cls-12" d="M920.64,1840.16c5.27,2.33,10.55,4.66,15.82,6.99,3.5,1.55,6.56-3.62,3.03-5.18-5.27-2.33-10.55-4.66-15.82-6.99-3.5-1.55-6.56,3.62-3.03,5.18h0Z"/>
    <path class="cls-12" d="M499.84,1954.68c7.72,0,7.73-12,0-12s-7.73,12,0,12h0Z"/>
    <path class="cls-12" d="M533.77,1942.85c7.72,0,7.73-12,0-12s-7.73,12,0,12h0Z"/>
    <path class="cls-12" d="M561.39,1938.9c7.72,0,7.73-12,0-12s-7.73,12,0,12h0Z"/>
    <path class="cls-12" d="M483.26,2001.25c7.72,0,7.73-12,0-12s-7.73,12,0,12h0Z"/>
    <path class="cls-12" d="M499.05,2035.18c7.72,0,7.73-12,0-12s-7.73,12,0,12h0Z"/>
    <path class="cls-12" d="M517.2,2048.6c7.72,0,7.73-12,0-12s-7.73,12,0,12h0Z"/>
    <path class="cls-12" d="M569.28,2048.6c7.72,0,7.73-12,0-12s-7.73,12,0,12h0Z"/>
    <path class="cls-12" d="M554.29,2054.12c7.72,0,7.73-12,0-12s-7.73,12,0,12h0Z"/>
    <path class="cls-12" d="M597.7,2022.56c7.72,0,7.73-12,0-12s-7.73,12,0,12h0Z"/>
    <path class="cls-12" d="M600.06,1996.51c7.72,0,7.73-12,0-12s-7.73,12,0,12h0Z"/>
    <path class="cls-12" d="M597.7,1970.47c7.72,0,7.73-12,0-12s-7.73,12,0,12h0Z"/>
    <path class="cls-12" d="M589.01,1957.05c7.72,0,7.73-12,0-12s-7.73,12,0,12h0Z"/>
    <path class="cls-12" d="M535.35,1939.69c7.72,0,7.73-12,0-12s-7.73,12,0,12h0Z"/>
    <path class="cls-12" d="M652.97,1899.83c7.72,0,7.73-12,0-12s-7.73,12,0,12h0Z"/>
    <path class="cls-12" d="M681.09,1862.34c7.72,0,7.73-12,0-12s-7.73,12,0,12h0Z"/>
    <path class="cls-12" d="M706.53,1859.66c7.72,0,7.73-12,0-12s-7.73,12,0,12h0Z"/>
    <path class="cls-12" d="M726.61,1858.33c7.72,0,7.73-12,0-12s-7.73,12,0,12h0Z"/>
    <path class="cls-12" d="M711.89,1852.97c7.72,0,7.73-12,0-12s-7.73,12,0,12h0Z"/>
    <path class="cls-12" d="M756.07,1870.38c7.72,0,7.73-12,0-12s-7.73,12,0,12h0Z"/>
    <path class="cls-12" d="M769.46,1897.15c7.72,0,7.73-12,0-12s-7.73,12,0,12h0Z"/>
    <path class="cls-12" d="M768.12,1926.61c7.72,0,7.73-12,0-12s-7.73,12,0,12h0Z"/>
    <path class="cls-12" d="M757.41,1946.69c7.72,0,7.73-12,0-12s-7.73,12,0,12h0Z"/>
    <path class="cls-12" d="M733.31,1964.1c7.72,0,7.73-12,0-12s-7.73,12,0,12h0Z"/>
    <path class="cls-12" d="M738.66,1968.12c7.72,0,7.73-12,0-12s-7.73,12,0,12h0Z"/>
    <path class="cls-12" d="M699.84,1968.12c7.72,0,7.73-12,0-12s-7.73,12,0,12h0Z"/>
    <path class="cls-12" d="M669.04,1948.03c7.72,0,7.73-12,0-12s-7.73,12,0,12h0Z"/>
    <path class="cls-12" d="M654.31,1930.63c7.72,0,7.73-12,0-12s-7.73,12,0,12h0Z"/>
    <path class="cls-12" d="M667.7,1954.73c7.72,0,7.73-12,0-12s-7.73,12,0,12h0Z"/>
    <path class="cls-12" d="M859.19,1940.48c7.72,0,7.73-12,0-12s-7.73,12,0,12h0Z"/>
    <path class="cls-12" d="M892.67,1931.55c7.72,0,7.73-12,0-12s-7.73,12,0,12h0Z"/>
    <path class="cls-12" d="M932.85,1944.94c7.72,0,7.73-12,0-12s-7.73,12,0,12h0Z"/>
    <path class="cls-12" d="M950.7,1969.5c7.72,0,7.73-12,0-12s-7.73,12,0,12h0Z"/>
    <path class="cls-12" d="M941.78,2016.37c7.72,0,7.73-12,0-12s-7.73,12,0,12h0Z"/>
    <path class="cls-12" d="M910.53,2045.39c7.72,0,7.73-12,0-12s-7.73,12,0,12h0Z"/>
    <path class="cls-12" d="M863.65,2040.93c7.72,0,7.73-12,0-12s-7.73,12,0,12h0Z"/>
    <path class="cls-12" d="M834.63,2009.68c7.72,0,7.73-12,0-12s-7.73,12,0,12h0Z"/>
    <path class="cls-12" d="M834.63,1967.26c7.72,0,7.73-12,0-12s-7.73,12,0,12h0Z"/>
    <path class="cls-12" d="M365.87,1929.32c7.72,0,7.73-12,0-12s-7.73,12,0,12h0Z"/>
    <path class="cls-12" d="M339.09,1938.25c7.72,0,7.73-12,0-12s-7.73,12,0,12h0Z"/>
    <path class="cls-12" d="M316.77,1965.03c7.72,0,7.73-12,0-12s-7.73,12,0,12h0Z"/>
    <path class="cls-12" d="M314.53,2005.21c7.72,0,7.73-12,0-12s-7.73,12,0,12h0Z"/>
    <path class="cls-12" d="M345.78,2040.93c7.72,0,7.73-12,0-12s-7.73,12,0,12h0Z"/>
    <path class="cls-12" d="M390.43,2043.16c7.72,0,7.73-12,0-12s-7.73,12,0,12h0Z"/>
    <path class="cls-12" d="M419.45,2014.14c7.72,0,7.73-12,0-12s-7.73,12,0,12h0Z"/>
    <path class="cls-12" d="M428.37,1976.19c7.72,0,7.73-12,0-12s-7.73,12,0,12h0Z"/>
    <path class="cls-12" d="M410.52,1944.94c7.72,0,7.73-12,0-12s-7.73,12,0,12h0Z"/>
    <path class="cls-12" d="M135.96,1980.66c7.72,0,7.73-12,0-12s-7.73,12,0,12h0Z"/>
    <path class="cls-12" d="M111.4,2005.21c7.72,0,7.73-12,0-12s-7.73,12,0,12h0Z"/>
    <path class="cls-12" d="M104.71,2049.85c7.72,0,7.73-12,0-12s-7.73,12,0,12h0Z"/>
    <path class="cls-12" d="M138.19,2090.03c7.72,0,7.73-12,0-12s-7.73,12,0,12h0Z"/>
    <path class="cls-12" d="M180.6,2090.03c7.72,0,7.73-12,0-12s-7.73,12,0,12h0Z"/>
    <path class="cls-12" d="M207.39,2065.48c7.72,0,7.73-12,0-12s-7.73,12,0,12h0Z"/>
    <path class="cls-12" d="M218.55,2032c7.72,0,7.73-12,0-12s-7.73,12,0,12h0Z"/>
    <path class="cls-12" d="M207.39,1994.05c7.72,0,7.73-12,0-12s-7.73,12,0,12h0Z"/>
    <path class="cls-12" d="M182.83,1976.19c7.72,0,7.73-12,0-12s-7.73,12,0,12h0Z"/>
  </g>
</svg>