<?xml version="1.0" encoding="UTF-8"?>
<svg id="Layer_2" data-name="Layer 2" xmlns="http://www.w3.org/2000/svg" viewBox="0 0 1190.27 787.42">
  <defs>
    <style>
      .cls-1 {
        fill: #2f9700;
      }

      .cls-1, .cls-2, .cls-3, .cls-4 {
        stroke-width: 0px;
      }

      .cls-2 {
        fill: #9dc700;
      }

      .cls-3 {
        fill: #f2ffa2;
      }

      .cls-4 {
        fill: #68ca00;
      }
    </style>
  </defs>
  <g id="Layer_2-2" data-name="Layer 2">
    <g>
      <path class="cls-2" d="M353.67,330.87c38.03,78.13,54.14,166.26,47.61,252.83-1.81,24.03-5.52,47.81-10.93,71.29-1.46,6.31,1.95,12.99,8.38,14.76,6.06,1.66,13.3-2.04,14.76-8.38,20.46-88.74,16.96-182.73-10.1-269.71-7.77-24.99-17.54-49.37-29-72.9-2.84-5.83-11.13-7.4-16.42-4.31-5.95,3.48-7.15,10.57-4.31,16.42h0Z"/>
      <path class="cls-2" d="M712.77,257.76c38.68,97.51,58.79,201.92,58.78,306.83,0,29.76-1.63,59.51-4.79,89.1-.69,6.45,6.01,12,12,12,7.06,0,11.31-5.53,12-12,11.35-105.97,2.3-214.15-26.13-316.86-8.02-28.98-17.63-57.5-28.72-85.45-2.39-6.02-8.03-10.23-14.76-8.38-5.73,1.57-10.78,8.7-8.38,14.76h0Z"/>
      <path class="cls-2" d="M550.32,347.35c4.97,20.71,12.8,40.5,19.95,60.51,7.01,19.59,13,39.52,17.85,59.75,9.42,39.34,14.48,79.59,15.14,120.04.39,23.53-.72,47.06-3.23,70.46-.69,6.45,6.01,12,12,12,7.06,0,11.3-5.53,12-12,8.97-83.49-.53-169.15-27.79-248.59-7.82-22.79-17.14-45.07-22.78-68.55-3.6-15.01-26.75-8.66-23.14,6.38h0Z"/>
      <path class="cls-2" d="M878.06,334.24c23.14,83.07,36.42,168.65,39.28,254.84.82,24.59.78,49.2-.05,73.8-.52,15.45,23.48,15.43,24,0,2.97-87.93-4.63-176.21-22.45-262.37-5.05-24.41-10.95-48.63-17.63-72.64-4.14-14.86-27.3-8.55-23.14,6.38h0Z"/>
      <path class="cls-1" d="M135.79,726.08c-8.27-58.97-20.76-117.28-37.35-174.47-17.63,13.55-35.26,27.1-52.88,40.66,39.97,20.68,77.99,44.93,113.63,72.39l-7.29-5.63c29.06,22.51,56.43,47.09,81.91,73.59,8.85,9.2,22.83,12.62,35.03,9.26,6.1-1.71,11.39-4.8,15.89-9.26,4.46-4.49,7.55-9.79,9.26-15.89l.66-1.57-3.63,8.6c7.6-17.76,17.38-34.41,29.1-49.76l-5.63,7.29c12.18-15.72,26.22-29.8,41.92-42.01l-7.29,5.63c9.46-7.25,19.42-13.75,29.87-19.48-18.06-10.36-36.11-20.72-54.17-31.08,1,21.78,1.99,43.56,2.99,65.35.52,11.28.84,22.84,3.55,33.85,3.36,13.63,11,25.23,22.02,33.74,24.24,18.73,56.41,11.61,79.63-5,17-12.16,33.24-25.53,49.79-38.29,19.43-14.98,38.87-29.97,58.3-44.95-18.06-10.36-36.11-20.72-54.17-31.08.02,23.95,3.82,48.53,11.8,71.14,9.03,25.59,21.84,47.75,38.57,68.98,6.85,8.7,20.02,11.28,30.24,9.9,10.93-1.47,20.75-7.36,26.3-17.19,25.04-44.31,53.19-86.8,84.24-127.13-1.88,2.43-3.75,4.86-5.63,7.29,7.78-10.07,15.72-20,23.84-29.79-20.06-5.3-40.11-10.59-60.17-15.89,19.91,49.79,39.83,99.59,59.74,149.38,4.82,12.04,11.99,21.52,25.14,25.14,11.97,3.3,26.46.09,35.03-9.26,31.63-34.49,63.25-68.98,94.88-103.47-20.06-5.3-40.11-10.59-60.17-15.89,18.77,46.7,37.54,93.4,56.32,140.11,2.33,5.8,4.75,11.37,9.26,15.89,5.63,5.63,12.87,8.85,20.67,9.9,6.59.88,12.53.13,18.66-2.46,6.47-2.73,14.34-7.99,17.21-14.73,21.4-50.23,49.08-97.59,82.34-140.9l-5.63,7.29c1.59-2.06,3.19-4.1,4.79-6.14l-56.54-7.29c21.37,38.22,42.74,76.44,64.11,114.65,11.45,20.48,40.25,23.21,56.54,7.29,40.4-39.49,80.81-78.98,121.21-118.46-20.49-8.49-40.97-16.97-61.46-25.46-.41,5.11-.95,10.2-1.61,15.28l1.29-9.57c-3.4,24.8-10.03,48.96-19.74,72.03l3.63-8.6c-4.8,11.19-10.28,22.05-16.44,32.55-9.53,16.25-4.25,40.18,12.92,49.25,17.28,9.13,39.08,4.44,49.25-12.92,24.8-42.27,38.78-89.3,42.7-138.03.46-5.75-2.04-13.26-4.92-18.17-3.96-6.77-10.07-11.72-17.21-14.73-13.31-5.62-28.88-2.76-39.33,7.44-40.4,39.49-80.81,78.98-121.21,118.46l56.54,7.29c-21.37-38.22-42.74-76.44-64.11-114.65-5.5-9.84-15.41-15.72-26.3-17.19-10.22-1.37-23.39,1.2-30.24,9.9-37.41,47.5-69.03,98.63-92.76,154.33,21.93,2.87,43.87,5.73,65.8,8.6-18.77-46.7-37.54-93.4-56.32-140.11-4.84-12.04-11.98-21.52-25.14-25.14-11.97-3.3-26.46-.09-35.03,9.26-31.63,34.49-63.25,68.98-94.88,103.47,20.06,5.3,40.11,10.59,60.17,15.89-19.91-49.79-39.83-99.59-59.74-149.38-4.82-12.04-11.99-21.52-25.14-25.14-11.48-3.16-27.05-.37-35.03,9.26-42.56,51.37-80.88,106.12-113.71,164.21l56.54-7.29-1.14-1.45c1.88,2.43,3.75,4.86,5.63,7.29-9.81-12.71-17.87-26.55-24.17-41.31,1.21,2.87,2.42,5.73,3.63,8.6-6.4-15.4-10.76-31.45-13-47.97l1.29,9.57c-1-7.95-1.5-15.92-1.51-23.93-.01-12.69-6.87-24.67-17.83-31.08-10.03-5.87-26.51-7.58-36.34,0-20.86,16.09-41.73,32.17-62.59,48.26-10.29,7.93-20.58,15.87-30.87,23.8-9.36,7.21-18.44,14.9-29.35,19.69l8.6-3.63c-3.18,1.27-6.35,2.23-9.74,2.77l9.57-1.29c-2.15.22-4.19.25-6.34.04l9.57,1.29c-1.6-.28-3.02-.64-4.56-1.16l8.6,3.63c-1.56-.68-2.89-1.41-4.31-2.34l7.29,5.63c-1.61-1.25-2.96-2.57-4.25-4.15l5.63,7.29c-1.16-1.63-2.11-3.29-2.96-5.11l3.63,8.6c-1.57-3.87-2.45-7.84-3.03-11.97l1.29,9.57c-1.56-13.18-1.53-26.63-2.14-39.88-.66-14.52-1.33-29.04-1.99-43.56-1.26-27.46-29.56-44.58-54.17-31.08-25.38,13.92-48.92,32.45-68.22,54.03-21.54,24.09-37.44,50.62-49.87,80.3,20.06-5.3,40.11-10.59,60.17-15.89-45.95-47.79-98.35-89.85-154.84-124.55-15.66-9.61-31.67-18.62-47.99-27.07-13.08-6.77-28.11-6.36-39.98,2.81-11.2,8.65-16.95,23.89-12.9,37.84,16.59,57.19,29.08,115.5,37.35,174.47,1.16,8.27,9.71,17.51,16.54,21.51,7.72,4.52,19.09,6.43,27.74,3.63,8.71-2.82,17.12-8.22,21.51-16.54l3.63-8.6c1.71-6.38,1.71-12.76,0-19.14h0Z"/>
      <path class="cls-2" d="M151.8,374.99c-1.09,20.45,4.38,40.39,10.71,59.64,6.33,19.23,12.38,38.31,16.07,58.25,7.25,39.19,7.26,79.46,5.15,119.14-1.22,22.91-3.22,45.77-5.26,68.63-.58,6.46,5.93,12,12,12,6.97,0,11.42-5.52,12-12,3.63-40.64,7.18-81.42,6.3-122.26s-6.74-80.84-19.6-119.56c-6.89-20.74-14.56-41.64-13.38-63.83.34-6.48-5.76-12-12-12-6.78,0-11.65,5.5-12,12h0Z"/>
      <path class="cls-4" d="M72.06,739.47c-.17-5.78.12-11.5.87-17.23l-1.29,9.57c1.3-8.84,3.66-17.39,7.01-25.67l-3.63,8.6c3.69-8.73,8.38-16.88,14.09-24.44-1.88,2.43-3.75,4.86-5.63,7.29,5.48-7.05,11.71-13.37,18.72-18.91l-7.29,5.63c3.75-2.87,7.65-5.48,11.74-7.84-14.54-1.88-29.08-3.75-43.63-5.63,22.15,25.11,44.3,50.21,66.45,75.32,15.59,17.67,45.32,11.62,56.54-7.29,6.26-10.54,13.13-20.68,20.6-30.4l-5.63,7.29c15.43-19.84,33.2-37.66,53.02-53.11-2.43,1.88-4.86,3.75-7.29,5.63,8.65-6.67,17.73-13.98,27.83-18.3l-8.6,3.63c1.66-.6,3.23-1.07,4.96-1.44-3.19.43-6.38.86-9.57,1.29,1.74-.22,3.23-.28,4.98-.15-3.19-.43-6.38-.86-9.57-1.29,1.12.14,2.21.41,3.27.82l-8.6-3.63c1.34.6,2.45,1.22,3.65,2.06l-7.29-5.63c1.47,1.23,2.69,2.54,3.86,4.06l-5.63-7.29c2.23,3.23,3.87,6.72,5.41,10.33l-3.63-8.6c6.68,15.86,13.36,31.71,20.04,47.57,8.03,19.06,15.24,39.73,34.84,50.13,12.44,6.61,27.53,8.32,40.91,3.56,12.04-4.29,21.38-11.75,31.06-19.91,10.92-9.21,20.99-19.39,32.3-28.15l-7.29,5.63c6.23-4.7,12.75-8.91,19.88-12.13l-8.6,3.63c4.89-2.06,9.93-3.43,15.18-4.21l-9.57,1.29c5.29-.67,10.53-.71,15.82-.07l-9.57-1.29c4.25.62,8.33,1.67,12.31,3.27l-8.6-3.63c3.03,1.32,5.83,2.91,8.49,4.88-2.43-1.88-4.86-3.75-7.29-5.63,2.24,1.79,4.18,3.72,5.96,5.97l-5.63-7.29c1.47,2.03,2.69,4.13,3.72,6.42l-3.63-8.6c5.13,12.77,6.67,26.17,13.18,38.56,12.9,24.56,44.23,32.94,67.92,18.63,8.97-5.42,17.02-13.29,25.1-19.98,7.22-5.97,14.44-11.94,21.66-17.91,14.44-11.94,28.87-23.89,43.31-35.83,16.04-13.27,31.8-27.03,48.23-39.81l-7.29,5.63c3.56-2.65,7.24-4.97,11.32-6.76l-8.6,3.63c1.96-.75,3.88-1.33,5.94-1.71-3.19.43-6.38.86-9.57,1.29,1.5-.17,2.85-.21,4.36-.12-3.19-.43-6.38-.86-9.57-1.29,1.5.24,2.73.57,4.14,1.12l-8.6-3.63c.92.42,1.78.94,2.58,1.55l-7.29-5.63c1.16.98,2.05,1.92,2.98,3.12-1.88-2.43-3.75-4.86-5.63-7.29.81,1.25,1.45,2.46,2.07,3.82-1.21-2.87-2.42-5.73-3.63-8.6,3.41,8.93,4.21,19.04,5.87,28.4,1.93,10.84,3.85,21.67,5.78,32.51,3.9,21.91,5,47.23,21.81,63.82,15.21,15,39.63,17.01,57.41,5.4,10.11-6.6,17.73-16.05,25.83-24.82,7.58-8.21,15.16-16.41,22.75-24.62,6.95-7.52,13.55-16.17,21.48-22.66l-7.29,5.63c.79-.61,1.62-1.13,2.51-1.57-2.87,1.21-5.73,2.42-8.6,3.63.87-.43,1.78-.72,2.74-.87l-9.57,1.29c1-.15,1.99-.12,2.97.09-3.19-.43-6.38-.86-9.57-1.29l1.43.44-8.6-3.63c.94.38,1.81.88,2.62,1.5l-7.29-5.63c1.66,1.38,3.05,2.87,4.41,4.54-1.88-2.43-3.75-4.86-5.63-7.29,16.87,22.25,30.69,46.88,41.63,72.55l-3.63-8.6c.49,1.15.97,2.3,1.44,3.45,1.71,6.1,4.8,11.39,9.26,15.89,4.49,4.46,9.79,7.55,15.89,9.26,11.46,3.16,27.09.38,35.03-9.26,28.86-35.03,59.62-68.43,92.16-100.07l-56.54-7.29c7.21,15.17,14.42,30.34,21.63,45.51,6.8,14.3,12.56,29.68,22.29,42.27,7.23,9.35,16.56,17.44,28.38,20.39,13.23,3.31,27.44,1.79,39.13-5.56,9.28-5.83,16.22-14.2,21.91-23.46,3.2-5.2,6.04-10.49,9.74-15.38l-5.63,7.29c4.27-5.42,9.08-10.25,14.54-14.49-2.43,1.88-4.86,3.75-7.29,5.63,4.64-3.44,9.53-6.32,14.83-8.61l-8.6,3.63c4.84-1.95,9.77-3.3,14.93-4.02-3.19.43-6.38.86-9.57,1.29,3.98-.44,7.88-.49,11.87-.07-3.19-.43-6.38-.86-9.57-1.29,4.83.67,9.42,1.95,13.91,3.84l-8.6-3.63c3.98,1.81,7.66,4,11.13,6.65l-7.29-5.63c2.98,2.41,5.64,5.05,8.05,8.04l-5.63-7.29c2.28,3.02,4.15,6.19,5.65,9.67-1.21-2.87-2.42-5.73-3.63-8.6,1.21,3.12,2.03,6.22,2.49,9.53-.43-3.19-.86-6.38-1.29-9.57l.14,1.43c.98,9.78,3.36,18.28,10.54,25.46,6.24,6.24,16.49,10.95,25.46,10.54s18.97-3.48,25.46-10.54c6.09-6.63,11.48-16.11,10.54-25.46-1.23-12.38-3.65-23.24-10.04-34.15-6.18-10.56-14.45-18.4-24.13-25.61-14.45-10.78-34.69-17.04-52.75-15.58-23.05,1.87-42.33,10.71-60.02,25.37-7.65,6.34-13.86,14.3-19.58,22.36-4.03,5.67-6.97,12.02-11.07,17.64,1.88-2.43,3.75-4.86,5.63-7.29-1.44,1.83-2.94,3.47-4.71,4.97l7.29-5.63c-1.08.8-2.11,1.44-3.31,2.05l8.6-3.63c-1.27.51-2.4.83-3.74,1.08l9.57-1.29c-1.44.11-2.67.08-4.1-.1l9.57,1.29c-.88-.16-1.73-.42-2.55-.75l8.6,3.63c-1.26-.58-2.33-1.21-3.48-1.99l7.29,5.63c-1.88-1.51-3.45-3.17-4.94-5.05l5.63,7.29c-3.99-5.47-6.66-11.68-9.56-17.77-3.45-7.27-6.91-14.54-10.36-21.81-7.06-14.85-14.12-29.71-21.18-44.56-4.73-9.95-15.96-15.8-26.3-17.19-11.34-1.52-21.95,1.84-30.24,9.9-32.54,31.63-63.31,65.04-92.16,100.07,20.06,5.3,40.11,10.59,60.17,15.89-7.64-18.48-15.92-36.53-26.12-53.75-4.45-7.51-9.17-14.85-14.17-22-8.47-12.12-16.57-23.67-30.66-29.62-18.54-7.82-37.94-1.94-51.83,11.9-6.7,6.68-12.92,13.93-19.35,20.88s-13.27,14.36-19.9,21.54c-6.33,6.85-12.38,14.42-19.44,20.54l7.29-5.63c-1.26.97-2.45,1.77-3.84,2.53l8.6-3.63c-.89.43-1.82.75-2.78.96l9.57-1.29c-.98.2-1.97.25-2.96.15,3.19.43,6.38.86,9.57,1.29-.83-.09-1.63-.28-2.41-.58,2.87,1.21,5.73,2.42,8.6,3.63-.74-.29-1.44-.67-2.09-1.13l7.29,5.63c-1-.79-1.77-1.56-2.59-2.54l5.63,7.29c-1.02-1.44-1.83-2.91-2.56-4.52,1.21,2.87,2.42,5.73,3.63,8.6-3.66-9.21-4.44-19.73-6.17-29.43-1.93-10.84-3.85-21.67-5.78-32.51-4.65-26.14-6.22-55.97-32.22-70.59-17.51-9.85-38.33-6.55-55.19,2.87-11.04,6.17-20.61,15.45-30.34,23.5-17.65,14.6-35.29,29.19-52.94,43.79-19.77,16.35-39.23,33.18-59.37,49.06l7.29-5.63c-1.69,1.24-3.37,2.3-5.28,3.18,2.87-1.21,5.73-2.42,8.6-3.63-.95.39-1.93.65-2.94.8,3.19-.43,6.38-.86,9.57-1.29-1.08.11-2.05.14-3.12.08,3.19.43,6.38.86,9.57,1.29-.96-.14-1.8-.34-2.72-.65l8.6,3.63c-.85-.38-1.58-.78-2.35-1.3l7.29,5.63c-.99-.79-1.83-1.63-2.64-2.61l5.63,7.29c-1.25-1.7-2.23-3.49-3.11-5.41l3.63,8.6c-5.12-12.15-6.76-25.14-12.5-37.16-8.13-17.03-24.49-28.03-41.76-34.13-15.62-5.52-33.54-4.95-49.51-1.49-18.11,3.93-33.44,14.58-47.72,25.82-13.03,10.26-24.5,22.32-37.62,32.48l7.29-5.63c-2.71,2.03-5.44,3.84-8.52,5.28l8.6-3.63c-1.58.61-3.02,1.04-4.68,1.37l9.57-1.29c-1.63.15-3.03.15-4.64-.05l9.57,1.29c-.9-.16-1.77-.4-2.62-.72l8.6,3.63c-1.69-.73-3.14-1.61-4.61-2.72l7.29,5.63c-1.43-1.25-2.67-2.58-3.86-4.05l5.63,7.29c-2.94-3.97-5.1-8.33-7.04-12.86l3.63,8.6c-7.48-17.76-14.96-35.52-22.44-53.27-5.02-11.92-9.19-23.34-18.57-32.69-13.03-13-31.62-17.27-49.32-13.19-10.45,2.41-19.89,8.33-28.57,14.38s-17.2,12.61-25.43,19.35c-12.86,10.53-24.84,22.15-35.76,34.68-13.87,15.92-26.55,33.05-37.33,51.21l56.54-7.29c-22.15-25.11-44.3-50.21-66.45-75.32-10.5-11.9-30.43-13.25-43.63-5.63C26.76,639.46-1.46,689.03.06,739.47c.56,18.8,16.15,36.89,36,36s36.61-15.84,36-36h0Z"/>
      <rect class="cls-4" x="5.07" y="702" width="1126" height="68"/>
      <path class="cls-4" d="M902.34,738.78c18.83,0,36.87-16.56,36-36-.87-19.5-15.82-36-36-36-18.83,0-36.87,16.56-36,36,.87,19.5,15.82,36,36,36h0Z"/>
      <path class="cls-4" d="M1068.96,751.33c18.83,0,36.87-16.56,36-36-.87-19.5-15.82-36-36-36-18.83,0-36.87,16.56-36,36,.87,19.5,15.82,36,36,36h0Z"/>
      <path class="cls-4" d="M1058.21,751.33c18.83,0,36.87-16.56,36-36-.87-19.5-15.82-36-36-36-18.83,0-36.87,16.56-36,36,.87,19.5,15.82,36,36,36h0Z"/>
      <path class="cls-4" d="M759,740.58c18.83,0,36.87-16.56,36-36-.87-19.5-15.82-36-36-36-18.83,0-36.87,16.56-36,36,.87,19.5,15.82,36,36,36h0Z"/>
      <path class="cls-4" d="M602.35,634.97c-13.76,7.76-27.51,15.51-41.27,23.27-12.56,7.08-19.06,21.93-17.19,35.87s11.91,26.57,25.79,29.93c36.6,8.86,74.61,13.21,112.27,12.33,18.81-.44,36.88-16.25,36-36-.86-19.13-15.83-36.47-36-36-20.48.48-40.92-.61-61.24-3.25l9.57,1.29c-13.95-1.88-27.77-4.48-41.46-7.79,2.87,21.93,5.73,43.87,8.6,65.8,13.76-7.76,27.51-15.51,41.27-23.27,16.42-9.25,23.34-33.09,12.92-49.25-10.7-16.6-31.69-22.82-49.25-12.92h0Z"/>
      <path class="cls-4" d="M398.87,740.58c18.83,0,36.87-16.56,36-36-.87-19.5-15.82-36-36-36-18.83,0-36.87,16.56-36,36,.87,19.5,15.82,36,36,36h0Z"/>
      <path class="cls-4" d="M250.16,650.66h-14.33c-9.23,0-18.93,4.02-25.46,10.54-6.24,6.24-10.95,16.49-10.54,25.46s3.48,18.97,10.54,25.46,15.7,10.54,25.46,10.54h14.33c9.23,0,18.93-4.02,25.46-10.54,6.24-6.24,10.95-16.49,10.54-25.46s-3.48-18.97-10.54-25.46-15.7-10.54-25.46-10.54h0Z"/>
      <path class="cls-4" d="M97.87,742.37c18.83,0,36.87-16.56,36-36-.87-19.5-15.82-36-36-36-18.83,0-36.87,16.56-36,36,.87,19.5,15.82,36,36,36h0Z"/>
      <path class="cls-3" d="M717.67,299.9c15.38,0,31.55-6.69,42.43-17.57s18.24-27.48,17.57-42.43-5.79-31.61-17.57-42.43c-11.74-10.78-26.17-17.57-42.43-17.57-15.38,0-31.55,6.69-42.43,17.57s-18.24,27.48-17.57,42.43,5.79,31.61,17.57,42.43,26.17,17.57,42.43,17.57h0Z"/>
      <path class="cls-3" d="M895.15,376.97c15.38,0,31.55-6.69,42.43-17.57s18.24-27.48,17.57-42.43-5.79-31.61-17.57-42.43-26.17-17.57-42.43-17.57c-15.38,0-31.55,6.69-42.43,17.57s-18.24,27.48-17.57,42.43,5.79,31.61,17.57,42.43,26.17,17.57,42.43,17.57h0Z"/>
      <path class="cls-3" d="M549.53,383.97c15.38,0,31.55-6.69,42.43-17.57s18.24-27.48,17.57-42.43-5.79-31.61-17.57-42.43-26.17-17.57-42.43-17.57c-15.38,0-31.55,6.69-42.43,17.57s-18.24,27.48-17.57,42.43,5.79,31.61,17.57,42.43,26.17,17.57,42.43,17.57h0Z"/>
      <path class="cls-3" d="M374.39,374.63c15.38,0,31.55-6.69,42.43-17.57s18.24-27.48,17.57-42.43-5.79-31.61-17.57-42.43c-11.74-10.78-26.17-17.57-42.43-17.57-15.38,0-31.55,6.69-42.43,17.57s-18.24,27.48-17.57,42.43,5.79,31.61,17.57,42.43,26.17,17.57,42.43,17.57h0Z"/>
      <path class="cls-3" d="M166.55,421.34c15.38,0,31.55-6.69,42.43-17.57s18.24-27.48,17.57-42.43-5.79-31.61-17.57-42.43c-11.74-10.78-26.17-17.57-42.43-17.57-15.38,0-31.55,6.69-42.43,17.57s-18.24,27.48-17.57,42.43,5.79,31.61,17.57,42.43,26.17,17.57,42.43,17.57h0Z"/>
      <path class="cls-3" d="M224.3,120.02c7.72,0,7.73-12,0-12s-7.73,12,0,12h0Z"/>
      <path class="cls-3" d="M447.38,155.24c7.72,0,7.73-12,0-12s-7.73,12,0,12h0Z"/>
      <path class="cls-3" d="M248.13,242.12c7.72,0,7.73-12,0-12s-7.73,12,0,12h0Z"/>
      <path class="cls-3" d="M600.01,12c7.72,0,7.73-12,0-12s-7.73,12,0,12h0Z"/>
      <path class="cls-3" d="M802.65,98.88c7.72,0,7.73-12,0-12s-7.73,12,0,12h0Z"/>
      <path class="cls-3" d="M926.41,176.37c7.72,0,7.73-12,0-12s-7.73,12,0,12h0Z"/>
      <path class="cls-3" d="M97.5,228.38c7.72,0,7.73-12,0-12s-7.73,12,0,12h0Z"/>
      <path class="cls-3" d="M250.37,243.41c3.19,3.91,6.37,7.83,9.56,11.74,2.44,3,6.66-1.27,4.24-4.24-3.19-3.91-6.37-7.83-9.56-11.74-2.44-3-6.66,1.27-4.24,4.24h0Z"/>
      <path class="cls-3" d="M448.25,154.83c1.75,3.11,3.51,6.22,5.26,9.33,1.9,3.36,7.08.34,5.18-3.03l-5.26-9.33c-1.9-3.36-7.08-.34-5.18,3.03h0Z"/>
      <path class="cls-3" d="M222.18,116.57c5.9.4,11.19,2.52,15.92,6.04,3.1,2.31,6.09-2.9,3.03-5.18-5.58-4.16-12.02-6.39-18.94-6.86-3.85-.26-3.84,5.74,0,6h0Z"/>
      <path class="cls-3" d="M96,225.5h23.91c3.86,0,3.87-6,0-6h-23.91c-3.86,0-3.87,6,0,6h0Z"/>
      <path class="cls-3" d="M601.26,10.15c4.08,1.02,7.6,3.01,10.56,6.01,2.72,2.75,6.96-1.49,4.24-4.24-3.65-3.69-8.16-6.28-13.2-7.55-3.75-.94-5.34,4.84-1.6,5.79h0Z"/>
      <path class="cls-3" d="M803.35,98.26c4.4,5.33,8.8,10.67,13.2,16,2.46,2.98,6.68-1.28,4.24-4.24-4.4-5.33-8.8-10.67-13.2-16-2.46-2.98-6.68,1.28-4.24,4.24h0Z"/>
      <path class="cls-3" d="M925.72,173.16c5.27,2.33,10.55,4.66,15.82,6.99,3.5,1.55,6.56-3.62,3.03-5.18-5.27-2.33-10.55-4.66-15.82-6.99-3.5-1.55-6.56,3.62-3.03,5.18h0Z"/>
      <path class="cls-3" d="M504.91,287.69c7.72,0,7.73-12,0-12s-7.73,12,0,12h0Z"/>
      <path class="cls-3" d="M538.84,275.85c7.72,0,7.73-12,0-12s-7.73,12,0,12h0Z"/>
      <path class="cls-3" d="M566.46,271.91c7.72,0,7.73-12,0-12s-7.73,12,0,12h0Z"/>
      <path class="cls-3" d="M488.33,334.25c7.72,0,7.73-12,0-12s-7.73,12,0,12h0Z"/>
      <path class="cls-3" d="M504.12,368.19c7.72,0,7.73-12,0-12s-7.73,12,0,12h0Z"/>
      <path class="cls-3" d="M522.27,381.6c7.72,0,7.73-12,0-12s-7.73,12,0,12h0Z"/>
      <path class="cls-3" d="M574.36,381.6c7.72,0,7.73-12,0-12s-7.73,12,0,12h0Z"/>
      <path class="cls-3" d="M559.36,387.13c7.72,0,7.73-12,0-12s-7.73,12,0,12h0Z"/>
      <path class="cls-3" d="M602.77,355.56c7.72,0,7.73-12,0-12s-7.73,12,0,12h0Z"/>
      <path class="cls-3" d="M605.14,329.52c7.72,0,7.73-12,0-12s-7.73,12,0,12h0Z"/>
      <path class="cls-3" d="M602.77,303.47c7.72,0,7.73-12,0-12s-7.73,12,0,12h0Z"/>
      <path class="cls-3" d="M594.09,290.06c7.72,0,7.73-12,0-12s-7.73,12,0,12h0Z"/>
      <path class="cls-3" d="M540.42,272.69c7.72,0,7.73-12,0-12s-7.73,12,0,12h0Z"/>
      <path class="cls-3" d="M658.05,232.84c7.72,0,7.73-12,0-12s-7.73,12,0,12h0Z"/>
      <path class="cls-3" d="M686.16,195.35c7.72,0,7.73-12,0-12s-7.73,12,0,12h0Z"/>
      <path class="cls-3" d="M711.6,192.67c7.72,0,7.73-12,0-12s-7.73,12,0,12h0Z"/>
      <path class="cls-3" d="M731.69,191.33c7.72,0,7.73-12,0-12s-7.73,12,0,12h0Z"/>
      <path class="cls-3" d="M716.96,185.97c7.72,0,7.73-12,0-12s-7.73,12,0,12h0Z"/>
      <path class="cls-3" d="M761.14,203.38c7.72,0,7.73-12,0-12s-7.73,12,0,12h0Z"/>
      <path class="cls-3" d="M774.53,230.16c7.72,0,7.73-12,0-12s-7.73,12,0,12h0Z"/>
      <path class="cls-3" d="M773.19,259.61c7.72,0,7.73-12,0-12s-7.73,12,0,12h0Z"/>
      <path class="cls-3" d="M762.48,279.7c7.72,0,7.73-12,0-12s-7.73,12,0,12h0Z"/>
      <path class="cls-3" d="M738.38,297.1c7.72,0,7.73-12,0-12s-7.73,12,0,12h0Z"/>
      <path class="cls-3" d="M743.74,301.12c7.72,0,7.73-12,0-12s-7.73,12,0,12h0Z"/>
      <path class="cls-3" d="M704.91,301.12c7.72,0,7.73-12,0-12s-7.73,12,0,12h0Z"/>
      <path class="cls-3" d="M674.11,281.04c7.72,0,7.73-12,0-12s-7.73,12,0,12h0Z"/>
      <path class="cls-3" d="M659.39,263.63c7.72,0,7.73-12,0-12s-7.73,12,0,12h0Z"/>
      <path class="cls-3" d="M672.77,287.73c7.72,0,7.73-12,0-12s-7.73,12,0,12h0Z"/>
      <path class="cls-3" d="M864.26,273.48c7.72,0,7.73-12,0-12s-7.73,12,0,12h0Z"/>
      <path class="cls-3" d="M897.74,264.55c7.72,0,7.73-12,0-12s-7.73,12,0,12h0Z"/>
      <path class="cls-3" d="M937.92,277.95c7.72,0,7.73-12,0-12s-7.73,12,0,12h0Z"/>
      <path class="cls-3" d="M955.78,302.5c7.72,0,7.73-12,0-12s-7.73,12,0,12h0Z"/>
      <path class="cls-3" d="M946.85,349.38c7.72,0,7.73-12,0-12s-7.73,12,0,12h0Z"/>
      <path class="cls-3" d="M915.6,378.39c7.72,0,7.73-12,0-12s-7.73,12,0,12h0Z"/>
      <path class="cls-3" d="M868.72,373.93c7.72,0,7.73-12,0-12s-7.73,12,0,12h0Z"/>
      <path class="cls-3" d="M839.7,342.68c7.72,0,7.73-12,0-12s-7.73,12,0,12h0Z"/>
      <path class="cls-3" d="M839.7,300.27c7.72,0,7.73-12,0-12s-7.73,12,0,12h0Z"/>
      <path class="cls-3" d="M370.95,262.32c7.72,0,7.73-12,0-12s-7.73,12,0,12h0Z"/>
      <path class="cls-3" d="M344.16,271.25c7.72,0,7.73-12,0-12s-7.73,12,0,12h0Z"/>
      <path class="cls-3" d="M321.84,298.04c7.72,0,7.73-12,0-12s-7.73,12,0,12h0Z"/>
      <path class="cls-3" d="M319.61,338.22c7.72,0,7.73-12,0-12s-7.73,12,0,12h0Z"/>
      <path class="cls-3" d="M350.86,373.93c7.72,0,7.73-12,0-12s-7.73,12,0,12h0Z"/>
      <path class="cls-3" d="M395.5,376.16c7.72,0,7.73-12,0-12s-7.73,12,0,12h0Z"/>
      <path class="cls-3" d="M424.52,347.14c7.72,0,7.73-12,0-12s-7.73,12,0,12h0Z"/>
      <path class="cls-3" d="M433.45,309.2c7.72,0,7.73-12,0-12s-7.73,12,0,12h0Z"/>
      <path class="cls-3" d="M415.59,277.95c7.72,0,7.73-12,0-12s-7.73,12,0,12h0Z"/>
      <path class="cls-3" d="M141.03,313.66c7.72,0,7.73-12,0-12s-7.73,12,0,12h0Z"/>
      <path class="cls-3" d="M116.48,338.22c7.72,0,7.73-12,0-12s-7.73,12,0,12h0Z"/>
      <path class="cls-3" d="M109.78,382.86c7.72,0,7.73-12,0-12s-7.73,12,0,12h0Z"/>
      <path class="cls-3" d="M143.26,423.04c7.72,0,7.73-12,0-12s-7.73,12,0,12h0Z"/>
      <path class="cls-3" d="M185.67,423.04c7.72,0,7.73-12,0-12s-7.73,12,0,12h0Z"/>
      <path class="cls-3" d="M212.46,398.48c7.72,0,7.73-12,0-12s-7.73,12,0,12h0Z"/>
      <path class="cls-3" d="M223.62,365c7.72,0,7.73-12,0-12s-7.73,12,0,12h0Z"/>
      <path class="cls-3" d="M212.46,327.05c7.72,0,7.73-12,0-12s-7.73,12,0,12h0Z"/>
      <path class="cls-3" d="M187.91,309.2c7.72,0,7.73-12,0-12s-7.73,12,0,12h0Z"/>
    </g>
  </g>
</svg>